<?xml version="1.0" encoding="utf-8"?>
<!-- Generator: Adobe Illustrator 16.0.0, SVG Export Plug-In . SVG Version: 6.00 Build 0)  -->
<!DOCTYPE svg PUBLIC "-//W3C//DTD SVG 1.1//EN" "http://www.w3.org/Graphics/SVG/1.1/DTD/svg11.dtd">
<svg version="1.1" id="Layer_1" xmlns="http://www.w3.org/2000/svg" xmlns:xlink="http://www.w3.org/1999/xlink" x="0px" y="0px"
	 width="201.333px" height="134.167px" viewBox="-13.167 -18.167 201.333 134.167"
	 enable-background="new -13.167 -18.167 201.333 134.167" xml:space="preserve">
<g>
	<g>
		<path fill="none" d="M1.03,117.955c0-39.106,0-77.878,0-116.925c56.407,0,112.572,0,168.918,0c0,39.005,8,77.98,8,116.925
			C121.611,117.955,57.306,117.955,1.03,117.955z M109.99,24.472c0-4.825,0.056-9.651-0.014-14.475
			c-0.101-6.918-3.931-10.891-10.793-10.972c-9.481-0.111-18.968-0.104-28.451-0.004c-6.601,0.07-10.639,4.022-10.714,10.533
			c-0.112,9.649-0.123,19.302,0.011,28.951c0.09,6.521,4.135,10.404,10.765,10.468c9.483,0.09,18.969,0.097,28.451-0.002
			c6.798-0.071,10.633-4.083,10.73-11.021C110.042,33.458,109.99,28.965,109.99,24.472z M22.134,61.992
			c-4.992,0-9.987-0.123-14.974,0.031c-5.959,0.186-10.033,4.17-10.12,10.107c-0.145,9.98-0.16,19.969,0.025,29.947
			c0.106,5.725,4.128,9.753,9.821,9.854c9.98,0.178,19.967,0.159,29.948,0.014c5.98-0.088,10.026-4.121,10.118-10.088
			c0.151-9.813,0.131-19.635,0.01-29.448c-0.078-6.249-4.074-10.201-10.354-10.384C31.788,61.885,26.959,61.997,22.134,61.992z
			 M109.988,87.258c0-4.826,0.068-9.652-0.016-14.477c-0.115-6.592-3.984-10.658-10.498-10.752
			c-9.647-0.137-19.301-0.125-28.949-0.008c-6.31,0.074-10.41,4.043-10.498,10.235c-0.138,9.813-0.141,19.634,0.01,29.448
			c0.096,6.234,4.165,10.177,10.465,10.251c9.649,0.114,19.302,0.116,28.95,0c6.49-0.078,10.396-4.144,10.52-10.724
			C110.061,96.576,109.988,91.916,109.988,87.258z M147.54,111.989c4.823,0,9.649,0.059,14.476-0.015
			c6.877-0.104,10.879-4,10.943-10.809c0.091-9.482,0.094-18.969-0.002-28.451c-0.066-6.576-3.999-10.6-10.555-10.688
			c-9.648-0.131-19.301-0.127-28.949-0.004c-6.273,0.08-10.35,4.092-10.434,10.301c-0.133,9.646-0.119,19.301-0.006,28.949
			c0.08,6.813,4.088,10.605,11.047,10.703C138.555,112.04,143.047,111.989,147.54,111.989z"/>
		<path fill="#E88403" d="M109.99,24.472c0,4.493,0.052,8.986-0.014,13.477c-0.099,6.939-3.934,10.951-10.73,11.021
			c-9.482,0.099-18.968,0.093-28.451,0.002c-6.629-0.063-10.674-3.947-10.765-10.468c-0.134-9.649-0.123-19.301-0.011-28.951
			C60.095,3.042,64.133-0.91,70.733-0.98c9.483-0.1,18.968-0.107,28.451,0.004c6.862,0.081,10.692,4.054,10.793,10.972
			C110.046,14.821,109.99,19.647,109.99,24.472z M104.98,24.033c0-3.821,0.094-7.645-0.022-11.463
			c-0.161-5.304-3.116-8.427-8.343-8.526c-7.807-0.148-15.618-0.156-23.424,0.005c-4.952,0.103-8.054,3.23-8.151,8.197
			c-0.154,7.805-0.147,15.618-0.003,23.424c0.093,5,3.153,8.167,8.077,8.269c7.971,0.166,15.951,0.174,23.921-0.019
			c4.734-0.114,7.671-3.174,7.893-7.928C105.113,32.015,104.967,28.021,104.98,24.033z"/>
		<path fill="#E88403" d="M22.134,61.995c4.825,0.002,9.654-0.11,14.475,0.03c6.28,0.183,10.276,4.135,10.354,10.384
			c0.122,9.813,0.141,19.635-0.01,29.448c-0.092,5.967-4.138,10-10.118,10.088c-9.981,0.146-19.968,0.164-29.948-0.014
			c-5.693-0.101-9.715-4.129-9.821-9.854C-3.12,92.1-3.104,82.111-2.959,72.132c0.086-5.938,4.161-9.923,10.12-10.108
			C12.147,61.869,17.142,61.992,22.134,61.995z M41.988,86.958c0-3.821,0.1-7.646-0.024-11.463c-0.171-5.291-3.14-8.363-8.409-8.461
			c-7.64-0.142-15.286-0.125-22.926-0.009c-5.32,0.082-8.481,3.092-8.583,8.281C1.894,83.111,1.894,90.925,2.047,98.73
			c0.097,4.974,3.195,8.104,8.143,8.205c7.805,0.158,15.618,0.151,23.424,0c5.262-0.104,8.174-3.175,8.347-8.516
			C42.083,94.604,41.983,90.779,41.988,86.958z"/>
		<path fill="#E88403" d="M109.988,87.258c0,4.658,0.07,9.318-0.016,13.977c-0.123,6.58-4.029,10.646-10.52,10.724
			c-9.648,0.116-19.301,0.114-28.95,0c-6.301-0.074-10.369-4.017-10.465-10.251c-0.151-9.814-0.148-19.635-0.01-29.448
			c0.087-6.192,4.188-10.161,10.498-10.235c9.648-0.116,19.301-0.129,28.949,0.009c6.515,0.093,10.383,4.159,10.498,10.751
			C110.059,77.605,109.988,82.432,109.988,87.258z M84.919,106.982c3.654,0,7.312,0.061,10.965-0.016
			c5.954-0.121,8.981-2.992,9.069-8.82c0.113-7.475,0.111-14.953,0.001-22.429c-0.084-5.563-3.119-8.606-8.681-8.694
			c-7.476-0.114-14.954-0.104-22.427-0.004c-5.616,0.076-8.726,3.065-8.817,8.562c-0.127,7.642-0.131,15.286,0.003,22.926
			c0.092,5.261,3.172,8.274,8.424,8.448C77.273,107.082,81.098,106.98,84.919,106.982z"/>
		<path fill="#E88403" d="M147.54,111.989c-4.493,0-8.985,0.051-13.479-0.013c-6.959-0.098-10.967-3.892-11.047-10.703
			c-0.113-9.648-0.128-19.303,0.006-28.949c0.084-6.209,4.158-10.221,10.434-10.301c9.648-0.123,19.301-0.127,28.949,0.004
			c6.556,0.089,10.488,4.111,10.555,10.688c0.096,9.482,0.093,18.969,0.002,28.451c-0.064,6.809-4.066,10.704-10.943,10.809
			C157.189,112.048,152.363,111.989,147.54,111.989z M167.975,86.934c0-3.82,0.102-7.646-0.025-11.463
			c-0.176-5.283-3.151-8.342-8.434-8.438c-7.64-0.139-15.285-0.127-22.926-0.006c-5.316,0.084-8.46,3.1-8.561,8.305
			c-0.148,7.807-0.152,15.618,0.004,23.424c0.1,4.963,3.211,8.082,8.167,8.182c7.805,0.155,15.618,0.152,23.424-0.002
			c5.249-0.104,8.153-3.189,8.321-8.539C168.066,94.579,167.971,90.754,167.975,86.934z"/>
		<path fill="none" d="M104.975,24.033c-0.008,3.987,0.141,7.981-0.047,11.959c-0.222,4.754-3.158,7.814-7.893,7.928
			c-7.971,0.193-15.95,0.184-23.921,0.019c-4.924-0.102-7.984-3.269-8.077-8.269c-0.145-7.806-0.151-15.619,0.003-23.424
			c0.098-4.967,3.199-8.095,8.151-8.197c7.806-0.162,15.618-0.153,23.424-0.005c5.227,0.099,8.182,3.222,8.343,8.526
			C105.074,16.388,104.98,20.212,104.975,24.033z"/>
		<path fill="none" d="M41.985,86.958c-0.002,3.821,0.098,7.646-0.026,11.463c-0.172,5.341-3.084,8.412-8.347,8.515
			c-7.806,0.152-15.619,0.16-23.424,0c-4.948-0.101-8.045-3.23-8.143-8.205c-0.153-7.805-0.153-15.617-0.001-23.424
			c0.102-5.188,3.263-8.197,8.583-8.279c7.641-0.117,15.287-0.135,22.926,0.008c5.269,0.098,8.237,3.17,8.409,8.461
			C42.087,79.313,41.988,83.137,41.985,86.958z"/>
		<path fill="none" d="M84.919,106.98c-3.821,0-7.646,0.102-11.463-0.025c-5.252-0.174-8.332-3.188-8.424-8.448
			c-0.134-7.64-0.13-15.284-0.003-22.926c0.091-5.495,3.201-8.485,8.817-8.562c7.475-0.101,14.953-0.11,22.427,0.004
			c5.562,0.088,8.597,3.131,8.681,8.694c0.11,7.476,0.112,14.954-0.001,22.429c-0.088,5.828-3.115,8.699-9.069,8.82
			C92.23,107.043,88.573,106.982,84.919,106.98z"/>
		<path fill="none" d="M167.973,86.934c-0.002,3.82,0.094,7.646-0.025,11.463c-0.17,5.35-3.073,8.435-8.322,8.539
			c-7.807,0.154-15.619,0.157-23.424,0.002c-4.956-0.1-8.067-3.219-8.167-8.182c-0.156-7.806-0.152-15.617-0.003-23.424
			c0.1-5.205,3.242-8.221,8.56-8.305c7.642-0.121,15.286-0.133,22.927,0.006c5.28,0.096,8.258,3.152,8.433,8.438
			C168.075,79.288,167.975,83.111,167.973,86.934z"/>
	</g>
</g>
<path fill="#FFFFFF" d="M108,34.835C108,41.554,102.583,47,95.9,47H74.349C67.667,47,62,41.554,62,34.835v-21.67
	C62,6.446,67.667,1,74.349,1h21.553C102.583,1,108,6.446,108,13.165V34.835z"/>
<path fill="#FFFFFF" d="M45,97.836C45,104.555,39.583,110,32.901,110H11.349C4.667,110-1,104.555-1,97.836V76.164
	C-1,69.445,4.667,64,11.349,64h21.553C39.583,64,45,69.445,45,76.164V97.836z"/>
<path fill="#FFFFFF" d="M108,97.836c0,6.719-5.417,12.164-12.1,12.164H74.349C67.667,110,62,104.555,62,97.836V76.164
	C62,69.445,67.667,64,74.349,64h21.553C102.583,64,108,69.445,108,76.164V97.836z"/>
<path fill="#FFFFFF" d="M171,97.836c0,6.719-5.417,12.164-12.1,12.164h-21.553C130.667,110,125,104.555,125,97.836V76.164
	C125,69.445,130.667,64,137.35,64h21.553C165.583,64,171,69.445,171,76.164V97.836z"/>
<text transform="matrix(1.0986 0 0 1 72.8945 33.4434)" fill="#E98300" font-family="'DINPro-Black'" font-size="24.4676">W</text>
<text transform="matrix(1.0986 0 0 1 12.5615 94.7773)" fill="#E98300" font-family="'DINPro-Black'" font-size="24.4676">A</text>
<text transform="matrix(1.0986 0 0 1 76.8955 94.7773)" fill="#E98300" font-family="'DINPro-Black'" font-size="24.4676">S</text>
<text transform="matrix(1.0986 0 0 1 140.2285 95)" fill="#E98300" font-family="'DINPro-Black'" font-size="24.4676">D</text>
</svg>
