<?xml version="1.0" encoding="utf-8"?>
<!-- Generator: Adobe Illustrator 16.0.0, SVG Export Plug-In . SVG Version: 6.00 Build 0)  -->
<!DOCTYPE svg PUBLIC "-//W3C//DTD SVG 1.1//EN" "http://www.w3.org/Graphics/SVG/1.1/DTD/svg11.dtd">
<svg version="1.1" xmlns="http://www.w3.org/2000/svg" xmlns:xlink="http://www.w3.org/1999/xlink" x="0px" y="0px"
	 width="511.936px" height="511.936px" viewBox="0 0 511.936 511.936" enable-background="new 0 0 511.936 511.936"
	 xml:space="preserve">
<g id="Layer_2">
	<path fill="#FFFFFF" d="M341.816,235.38c-2.128-12.241-9.351-24.729-15.508-35.41c-2.343-4.063-4.96-7.887-7.896-11.403
		c0.731-1.937,0.696-4.193-0.369-6.1c-3.033-5.432-11.032-7.242-17.206-8.597c-0.016-0.008-0.03-0.018-0.045-0.026
		c-12.363-6.844-26.302-11.053-40.25-13.016c-9.548-1.343-19.016-1.189-28.202,0.329c-3.635-0.307-7.309-0.195-11.008-0.157
		c-3.521,0.036-5.661,2.192-6.435,4.8c-2.067,0.768-4.112,1.604-6.129,2.514c-0.479,0.005-0.955,0.018-1.437,0.02
		c-3.065,0.011-5.086,1.633-6.07,3.769c-4.524,2.525-8.893,5.415-13.065,8.663c-19.473,15.158-33.503,37.177-35.541,62.055
		c-2.043,24.943,8.15,50.778,21.878,71.123c3.737,5.538,7.958,10.791,12.515,15.674c3.011,3.226,6.795,2.584,9.237,0.302
		c7.86,3.824,16.438,6.301,25.121,7.797c29.607,8.428,63.222,2.521,88.209-17.432c15.344-12.253,23.605-30.351,26.373-49.356
		C341.314,259.566,344.012,248.006,341.816,235.38z M210.616,315.467c-4.011-4.682-10.486-8.885-16.587-8.362
		c-10.033-9.393-17.785-21.392-21.961-34.02c-3.877-11.723-4.102-24.076-0.736-35.932c3.492-12.299,8.858-25.192,16.278-35.627
		c7.3-10.267,21.187-14.494,32.298-19.17c0.773-0.325,1.541-0.663,2.307-1.006c5.861-0.854,11.561-2.366,17.134-4.918
		c4.871-0.549,9.75-0.648,14.607-0.292c1.16,0.319,2.308,0.664,3.438,1.016c4.683,1.46,9.154,3.483,13.928,4.637
		c4.102,0.991,8.252,1.793,12.385,2.645c5.833,3.231,11.014,7.4,15.614,12.357c2.45,5.273,6.616,9.929,10.592,14.269
		c5.036,8.343,8.656,17.271,10.785,26.6c-0.042,0.157-0.087,0.313-0.115,0.476c-1.791,10.401-1.392,20.751-1.93,31.237
		c-0.118,2.294-0.402,4.544-0.817,6.757c-0.895,1.78-1.762,3.565-2.562,5.365c-4.043,9.099-7.715,18.732-14.693,26.049
		c-3.641,3.817-8.428,6.599-13.394,8.797c-4.867,1.917-10.095,3.344-15.488,4.642c-11.312,2.722-22.836,3.841-34.451,4.006
		C226.863,325.139,217.703,323.74,210.616,315.467z"/>
</g>
<g id="Layer_1">
	<g>
		<g>
			<path fill-rule="evenodd" clip-rule="evenodd" fill="none" d="M513.936,513.929c-170.934,0.002-341.868,0.002-512.869,0.002
				c0-170.888,0-341.779,0-512.802c170.912,0,341.89,0,512.869-0.006C513.936,172.053,513.936,342.99,513.936,513.929z
				 M398.746,287.47c-13.918-7.41-26.127-15.306-35.427-26.714c-2.931-3.595-5.906-9.032-5.337-13.137
				c0.736-5.309,4.064-11.066,7.949-14.962c7.916-7.94,16.682-15.124,25.664-21.863c3.379-2.535,3.729-5.362,2.624-7.946
				c-4.32-10.108-9.142-20.008-14.031-29.859c-0.52-1.046-2.765-1.854-4.126-1.745c-3.743,0.302-7.435,1.21-11.161,1.768
				c-6.484,0.971-12.958,2.362-19.479,2.659c-8.874,0.403-18.447,0.869-24.124-7.722c-2.655-4.018-4.371-9.491-4.333-14.288
				c0.083-10.718,1.313-21.45,2.532-32.125c0.524-4.588,0.441-7.878-4.773-9.647c-9.131-3.097-18.249-6.347-27.05-10.259
				c-3.99-1.774-6.565-1.78-8.813,1.892c-7.323,11.966-16.418,22.429-26.924,31.673c-3.908,3.438-8.479,5.636-13.643,3.496
				c-2.986-1.238-5.964-3.192-8.14-5.563c-8.815-9.609-17.258-19.56-26.019-29.221c-1.005-1.109-3.533-2.103-4.696-1.607
				c-11.164,4.754-22.212,9.785-33.199,14.938c-0.88,0.413-1.688,2.468-1.453,3.519c1.282,5.72,3.682,11.29,4.226,17.05
				c0.861,9.13,1.513,18.483,0.428,27.523c-0.776,6.473-5.677,11.257-12.77,13.016c-13.434,3.332-26.627,1.563-39.723-1.603
				c-5.439-1.314-7.739-0.934-9.809,4.11c-4.108,10.017-8.033,20.115-11.647,30.318c-0.439,1.242,1.053,4.099,2.418,4.903
				c12.113,7.137,23.055,15.694,32.363,26.217c6.382,7.214,6.374,12.908,0.632,20.669c-8.075,10.917-18.126,19.813-29.351,27.228
				c-3.796,2.507-3.97,5.518-2.761,8.284c4.591,10.505,9.704,20.785,14.81,31.057c0.423,0.849,2.432,1.64,3.408,1.373
				c13.183-3.611,26.585-5.338,40.23-4.752c9.4,0.403,16.192,5.893,17.646,13.895c2.407,13.245,1.34,26.403-1.317,39.477
				c-0.91,4.479-0.792,7.89,4.496,9.793c9.721,3.497,19.255,7.513,28.838,11.387c3.601,1.456,5.602-0.376,7.251-3.172
				c6.838-11.601,14.494-22.436,25.514-30.643c9.817-7.313,14.087-5.975,21.724-0.473c10.91,7.86,18.792,18.584,26.469,29.311
				c2.64,3.687,5.251,3.979,8.333,2.691c9.834-4.111,19.563-8.49,29.162-13.121c1.437-0.692,3.018-3.498,2.724-4.965
				c-1.667-8.32-4.667-16.437-5.669-24.807c-0.809-6.771-0.536-14.1,1.23-20.649c2.445-9.07,10.02-12.943,20.943-13.715
				c10.406-0.736,20.793-0.115,30.965,3.204c6.492,2.119,7.965,0.919,10.844-5.23c0.492-1.051,1.239-1.993,1.646-3.07
				C391.672,306.449,395.253,296.819,398.746,287.47z"/>
			<path fill-rule="evenodd" clip-rule="evenodd" fill="#E78404" d="M398.746,287.47c-3.493,9.35-7.074,18.979-10.706,28.592
				c-0.407,1.077-1.154,2.02-1.646,3.07c-2.879,6.149-4.352,7.35-10.844,5.23c-10.172-3.319-20.559-3.94-30.965-3.204
				c-10.924,0.771-18.498,4.645-20.943,13.715c-1.767,6.55-2.039,13.878-1.23,20.649c1.002,8.37,4.002,16.486,5.669,24.807
				c0.294,1.467-1.287,4.272-2.724,4.965c-9.6,4.631-19.328,9.01-29.162,13.121c-3.082,1.288-5.693,0.995-8.333-2.691
				c-7.677-10.727-15.559-21.45-26.469-29.311c-7.636-5.502-11.906-6.84-21.724,0.473c-11.02,8.207-18.676,19.042-25.514,30.643
				c-1.649,2.796-3.65,4.628-7.251,3.172c-9.583-3.874-19.118-7.89-28.838-11.387c-5.288-1.903-5.406-5.313-4.496-9.793
				c2.657-13.073,3.724-26.231,1.317-39.477c-1.454-8.002-8.246-13.491-17.646-13.895c-13.645-0.586-27.047,1.141-40.23,4.752
				c-0.976,0.267-2.985-0.524-3.408-1.373c-5.106-10.271-10.219-20.552-14.81-31.057c-1.209-2.767-1.035-5.777,2.761-8.284
				c11.224-7.414,21.275-16.311,29.351-27.228c5.742-7.761,5.75-13.455-0.632-20.669c-9.308-10.522-20.25-19.08-32.363-26.217
				c-1.365-0.805-2.857-3.662-2.418-4.903c3.614-10.203,7.539-20.301,11.647-30.318c2.069-5.044,4.37-5.424,9.809-4.11
				c13.096,3.166,26.289,4.934,39.723,1.603c7.093-1.759,11.993-6.543,12.77-13.016c1.085-9.04,0.434-18.393-0.428-27.523
				c-0.543-5.761-2.944-11.331-4.226-17.05c-0.235-1.051,0.573-3.106,1.453-3.519c10.987-5.153,22.035-10.184,33.199-14.938
				c1.164-0.496,3.691,0.498,4.696,1.607c8.761,9.661,17.203,19.612,26.019,29.221c2.175,2.372,5.153,4.326,8.14,5.563
				c5.164,2.141,9.735-0.058,13.643-3.496c10.506-9.244,19.601-19.707,26.924-31.673c2.248-3.672,4.823-3.667,8.813-1.892
				c8.801,3.913,17.919,7.162,27.05,10.259c5.215,1.77,5.298,5.059,4.773,9.647c-1.22,10.674-2.449,21.406-2.532,32.125
				c-0.038,4.796,1.678,10.27,4.333,14.288c5.677,8.59,15.25,8.125,24.124,7.722c6.521-0.297,12.995-1.688,19.479-2.659
				c3.727-0.558,7.418-1.466,11.161-1.768c1.361-0.109,3.606,0.698,4.126,1.745c4.89,9.851,9.711,19.75,14.031,29.859
				c1.104,2.584,0.755,5.411-2.624,7.946c-8.982,6.739-17.748,13.923-25.664,21.863c-3.885,3.896-7.213,9.653-7.949,14.962
				c-0.569,4.105,2.406,9.542,5.337,13.137C372.619,272.164,384.828,280.06,398.746,287.47z M335.96,251.987
				c0.007-49.114-39.864-89.001-88.972-89.008c-49.113-0.007-89.003,39.867-89.01,88.972c-0.006,49.115,39.866,89.002,88.973,89.009
				C296.068,340.966,335.953,301.098,335.96,251.987z"/>
			<path fill-rule="evenodd" clip-rule="evenodd" fill="none" d="M335.96,251.987c-0.007,49.111-39.892,88.979-89.009,88.973
				c-49.107-0.007-88.979-39.895-88.973-89.009c0.007-49.105,39.897-88.979,89.01-88.972
				C296.096,162.985,335.967,202.873,335.96,251.987z M247.175,331.951c44.136-0.069,79.89-36.063,79.776-80.313
				c-0.111-43.908-35.971-79.637-79.939-79.652c-44.188-0.015-80.053,35.868-80.025,80.065
				C167.015,296.215,202.951,332.021,247.175,331.951z"/>
			<path fill-rule="evenodd" clip-rule="evenodd" fill="#E88405" d="M247.175,331.951c-44.224,0.069-80.16-35.736-80.188-79.9
				c-0.028-44.197,35.836-80.08,80.025-80.065c43.969,0.015,79.828,35.744,79.939,79.652
				C327.064,295.889,291.311,331.882,247.175,331.951z M303.795,251.451c0.503-33.376-26.719-58.722-58.924-58.26
				c-29.854,0.429-57.37,24.368-55.754,60.296c1.331,29.589,26.572,55.023,57.944,54.767
				C278.538,307.997,303.914,284.08,303.795,251.451z"/>
			<path fill-rule="evenodd" clip-rule="evenodd" fill="none" d="M303.795,251.451c0.119,32.629-25.257,56.546-56.734,56.803
				c-31.372,0.256-56.613-25.178-57.944-54.767c-1.616-35.928,25.899-59.868,55.754-60.296
				C277.076,192.729,304.298,218.074,303.795,251.451z"/>
		</g>
	</g>
</g>
</svg>
