<?xml version="1.0" encoding="utf-8"?>
<!-- Generator: Adobe Illustrator 16.0.0, SVG Export Plug-In . SVG Version: 6.00 Build 0)  -->
<!DOCTYPE svg PUBLIC "-//W3C//DTD SVG 1.1//EN" "http://www.w3.org/Graphics/SVG/1.1/DTD/svg11.dtd">
<svg version="1.1" id="Layer_1" xmlns="http://www.w3.org/2000/svg" xmlns:xlink="http://www.w3.org/1999/xlink" x="0px" y="0px"
	 width="255.333px" height="200.667px" viewBox="0 0 255.333 200.667" enable-background="new 0 0 255.333 200.667"
	 xml:space="preserve">
<path fill="#E98300" d="M169.09,76.695c0.047-7.735,6.162-13.968,13.658-13.92l55.428,0.354c7.496,0.047,13.537,6.358,13.49,14.093
	l-0.342,57.195c-0.048,7.735-6.16,13.969-13.658,13.92l-35.444-0.226l-19.983-0.129c-7.496-0.047-13.537-6.356-13.49-14.093
	L169.09,76.695z"/>
<path fill="#E98300" d="M203.965,137.837c0,0-62.118,53.094-68.539,49.582c-6.422-3.512-0.911-162.135,0.964-160.897
	c1.876,1.238,67.999,40.255,67.999,40.255"/>
<path fill="#E98300" d="M136.172,177.003c0.932,1.092,1.314,2.623,1.132,4.078c1.368,0.076,2.743,0.111,4.12,0.063
	c0.256-0.008,0.494,0.006,0.729,0.031c1.944-1.123,4.185-2.414,6.634-3.823c-1.057-2.448-0.416-5.935,2.748-7.14
	c14.959-5.688,26.438-17.705,39.197-27.103c0.887-0.651,1.76-0.911,2.572-0.886c0.081-0.096,0.165-0.188,0.246-0.28
	c1.046-1.198,2.258-1.631,3.412-1.53c2.16-3.16,4.314-6.326,6.103-9.683l0.333-55.55c0,0-61.477-53.882-67.939-50.452
	c-5.269,2.795-3.842,108.798-2.11,147.185C135.429,172.699,136.37,174.917,136.172,177.003z"/>
<path fill="#FFFFFF" d="M172.214,83.416c0.035-6.144,4.647-11.093,10.303-11.056l41.807,0.281
	c5.653,0.038,10.209,5.05,10.175,11.192l-0.26,45.423c-0.033,6.144-4.645,11.093-10.299,11.056l-26.735-0.18l-15.073-0.102
	c-5.654-0.038-10.209-5.049-10.175-11.191L172.214,83.416z"/>
<path fill="#FFFFFF" d="M198.518,131.972c0,0-46.853,42.165-51.695,39.377s-0.688-128.763,0.729-127.781
	c1.415,0.982,51.287,31.97,51.287,31.97"/>
<path fill="#FFFFFF" d="M147.386,163.078c0.701,0.866,0.992,2.083,0.853,3.238c1.031,0.06,2.068,0.089,3.108,0.049
	c0.191-0.007,0.373,0.005,0.55,0.025c1.465-0.893,3.155-1.917,5.001-3.037c-0.795-1.944-0.313-4.715,2.073-5.669
	c11.284-4.519,19.941-14.061,29.566-21.525c0.667-0.518,1.326-0.724,1.939-0.704c0.062-0.073,0.126-0.146,0.187-0.221
	c0.787-0.953,1.702-1.296,2.573-1.218c1.629-2.509,3.254-5.023,4.604-7.688l0.25-44.117c0,0-46.369-42.792-51.244-40.067
	c-3.973,2.22-2.897,86.403-1.592,116.89C146.825,159.66,147.534,161.419,147.386,163.078z"/>
<path fill="none" d="M152.874,114.042c0-67.642-53.604-122.375-119.851-122.375"/>
<path fill="none" d="M45.023-20.333c0,64.957,46.028,117.52,102.908,117.52"/>
<path fill="none" d="M140.952,96.56c0-57.978-40.696-104.893-90.986-104.893"/>
<path fill="none" d="M111.616,180.346c0-55.83-4.49-101.009-10.039-101.009"/>
<path fill="none" d="M42.671,120.755c0,32.566-23.855,58.92-53.337,58.92"/>
<path fill="#E98300" d="M76.833,172.816c-13.096-20.839-21.258-45.057-18.556-70.102c1.64-15.166,6.212-29.819,12.159-43.724
	c3.212-7.515,6.919-15.052,11.488-21.915l0.625-16.698c-46.811,44.596-49.634,119.867-6.312,168.289L76.833,172.816z"/>
<path fill="#E98300" d="M121.011,150.766c-8.202-13.052-13.314-28.22-11.623-43.906c1.028-9.499,3.892-18.676,7.616-27.385
	c2.012-4.707,4.333-9.428,7.195-13.726l0.392-10.458c-29.318,27.932-31.087,75.076-3.952,105.403L121.011,150.766z"/>
<path fill="#E98300" d="M106.325,168.214c-12.251-19.49-19.884-42.141-17.357-65.563c1.534-14.181,5.81-27.887,11.373-40.891
	c3.004-7.029,6.472-14.079,10.746-20.497l0.583-15.618c-43.779,41.709-46.421,112.108-5.902,157.396L106.325,168.214z"/>
</svg>
