<?xml version="1.0" encoding="utf-8"?>
<!-- Generator: Adobe Illustrator 16.0.0, SVG Export Plug-In . SVG Version: 6.00 Build 0)  -->
<!DOCTYPE svg PUBLIC "-//W3C//DTD SVG 1.1//EN" "http://www.w3.org/Graphics/SVG/1.1/DTD/svg11.dtd">
<svg version="1.1" id="Layer_1" xmlns="http://www.w3.org/2000/svg" xmlns:xlink="http://www.w3.org/1999/xlink" x="0px" y="0px"
	 width="520px" height="456px" viewBox="0 0 520 456" enable-background="new 0 0 520 456" xml:space="preserve">
<g>
	<g>
		<path fill-rule="evenodd" clip-rule="evenodd" fill="#FEFEFE" d="M521.897,457.905c-173.658,0-347.278,0-520.86,0
			c0-152.326,0-304.616,0-456.868c173.657,0,347.277,0,520.86,0C521.897,153.363,521.897,305.653,521.897,457.905z M19.187,445.612
			c157.774,0,315.137,0,472.271,0c0-145.279,0-290.226,0-435.346c-157.355,0-314.719,0-472.271,0
			C19.187,155.448,19.187,300.362,19.187,445.612z"/>
		<path fill-rule="evenodd" clip-rule="evenodd" fill="#E88200" d="M19.187,445.612c0-145.25,0-290.164,0-435.346
			c157.552,0,314.916,0,472.271,0c0,145.121,0,290.067,0,435.346C334.324,445.612,176.961,445.612,19.187,445.612z M484.077,437.723
			c0-139.954,0-279.686,0-419.389c-152.777,0-304.807,0-456.712,0c0,140.034,0,279.735,0,419.389
			C179.645,437.723,331.556,437.723,484.077,437.723z"/>
		<path fill-rule="evenodd" clip-rule="evenodd" fill="#FEFEFE" d="M484.077,437.723c-152.521,0-304.433,0-456.712,0
			c0-139.654,0-279.355,0-419.389c151.906,0,303.935,0,456.712,0C484.077,158.037,484.077,297.769,484.077,437.723z"/>
	</g>
</g>
</svg>
