<?xml version="1.0" encoding="utf-8"?>
<!-- Generator: Adobe Illustrator 16.0.0, SVG Export Plug-In . SVG Version: 6.00 Build 0)  -->
<!DOCTYPE svg PUBLIC "-//W3C//DTD SVG 1.1//EN" "http://www.w3.org/Graphics/SVG/1.1/DTD/svg11.dtd">
<svg version="1.1" id="Layer_1" xmlns="http://www.w3.org/2000/svg" xmlns:xlink="http://www.w3.org/1999/xlink" x="0px" y="0px"
	 width="380px" height="290px" viewBox="0 0 380 290" enable-background="new 0 0 380 290" xml:space="preserve">
<g>
	<g>
		<path fill="none" d="M379.952,1c0.667,0.333,1.782,0.548,1.909,1.023c0.287,1.091,0.091,2.31,0.091,3.476
			c0,95.488,0,190.976,0,286.464c-125.651,0-251.302,0.007-376.953-0.104c-1.252-0.002-4.314,2.064-4-1.896
			c0.416-0.041,0.832-0.083,1.247-0.125c2.207-1.363,4.414-2.729,6.621-4.093c2.777,4.106,5.217,0.954,7.286-0.622
			c26.095-19.889,52.084-39.917,78.157-59.835c19.217-14.681,38.554-29.204,57.771-43.884c30.161-23.038,60.224-46.208,90.412-69.21
			c19.772-15.067,39.748-29.868,59.534-44.917c17.543-13.344,34.943-26.875,52.422-40.305c8.104-6.226,16.244-12.406,24.688-18.852
			c-1.824-0.921-3.064-1.547-4.306-2.174c1.049-0.965,2.097-1.931,3.146-2.896C378.637,2.366,379.295,1.684,379.952,1z"/>
		<path fill="#E98300" d="M2.247,289.839c-0.416,0.042-0.831,0.084-1.247,0.125C1,193.643,1,97.321,1,1
			c126.317,0,252.637,0,378.952,0c-0.657,0.684-1.315,1.366-1.974,2.05c-1.887-0.35-3.771-1.005-5.658-1.006
			C250.906,1.996,129.492,2,8.077,2c-1.77,0-3.539,0-5.079,0c0,2.81,0,4.969,0,7.128c0,90.769,0.007,181.539-0.031,272.308
			C2.966,284.236,2.498,287.038,2.247,289.839z"/>
		<path fill="#E98300" d="M2.247,289.839c0.25-2.801,0.719-5.603,0.72-8.403C3.005,190.667,2.999,99.897,2.999,9.128
			c0-2.159,0-4.318,0-7.128c1.54,0,3.309,0,5.079,0C129.492,2,250.906,1.996,372.32,2.044c1.887,0,3.771,0.656,5.658,1.006
			c-1.049,0.966-2.098,1.932-3.146,2.896c-0.444,0.202-0.946,0.328-1.326,0.617c-96.353,73.711-192.705,147.425-289.04,221.162
			c-25.226,19.307-50.401,38.68-75.6,58.021C6.661,287.109,4.454,288.475,2.247,289.839z"/>
		<path fill="#D6D0C3" d="M8.868,285.746c25.199-19.342,50.375-38.717,75.6-58.021c96.335-73.735,192.688-147.45,289.04-221.162
			c0.379-0.289,0.883-0.415,1.326-0.617c1.239,0.627,2.479,1.253,4.305,2.174c-8.443,6.446-16.584,12.626-24.688,18.852
			c-17.479,13.43-34.879,26.961-52.422,40.305c-19.786,15.05-39.762,29.851-59.534,44.917c-30.188,23.003-60.25,46.172-90.412,69.21
			c-19.218,14.68-38.555,29.203-57.771,43.884c-26.073,19.918-52.062,39.946-78.157,59.835
			C14.084,286.7,11.645,289.854,8.868,285.746z"/>
	</g>
</g>
</svg>
