<?xml version="1.0" encoding="utf-8"?>
<!-- Generator: Adobe Illustrator 16.0.0, SVG Export Plug-In . SVG Version: 6.00 Build 0)  -->
<!DOCTYPE svg PUBLIC "-//W3C//DTD SVG 1.1//EN" "http://www.w3.org/Graphics/SVG/1.1/DTD/svg11.dtd">
<svg version="1.1" id="Layer_1" xmlns="http://www.w3.org/2000/svg" xmlns:xlink="http://www.w3.org/1999/xlink" x="0px" y="0px"
	 width="589px" height="250px" viewBox="0 0 589 250" enable-background="new 0 0 589 250" xml:space="preserve">
<g>
	<g>
		<path fill-rule="evenodd" clip-rule="evenodd" fill="#FEFEFE" d="M1,251.969C1,168.312,1,84.656,1,1
			c150.314,0,300.629,0,450.943,0c0,83.656,0,167.312,0,250.969C301.629,251.969,151.314,251.969,1,251.969z M106.958,173.984
			c-0.989-1.669-1.978-3.339-2.967-5.009c-0.541-3.385-0.709-6.884-1.698-10.133c-2.247-7.382-12.108-13.382-19.862-12.56
			c-1.033,0.109-2.125-0.462-3.183-0.438c-1.278,0.028-2.548,0.355-3.822,0.554c0.618,1.36,0.899,3.175,1.949,3.95
			c1.028,0.76,2.836,0.584,4.305,0.605c9.24,0.133,14.968,4.69,17.316,13.676c0.398,1.523,1.349,2.902,2.043,4.349
			c0.001,0.657,0.003,1.313,0.004,1.971c1.967,2.689,3.934,5.378,5.901,8.067c1.128,1.378,2.036,3.058,3.426,4.08
			c5.064,3.729,7.489,8.686,7.625,14.878c-0.198,0.557-0.714,1.248-0.544,1.648c1.636,3.855,3.245,7.734,5.174,11.445
			c0.814,1.565,2.115,3.31,3.636,4.003c7.484,3.414,15.034,6.728,22.753,9.549c1.958,0.716,5.303,0.259,6.773-1.05
			c1.473-1.312,2.19-4.5,1.817-6.614c-0.549-3.111-2.361-5.997-3.635-8.98c-0.001-1.669-0.003-3.337-0.004-5.007
			c1.011-2.767,2.346-5.462,2.97-8.314c1.539-7.038,6.06-11.529,12.503-13.483c9.405-2.854,16.688-9.087,22.873-15.745
			c4.372-4.707,9.77-6.266,14.685-8.94c2.91-1.585,5.788-2.383,7.553-5.525c1.674-2.982,3.56-5.622,0.689-8.979
			c-0.527-0.616-0.165-2.285,0.198-3.324c2.476-7.081,2.659-14.079-0.436-21.025c-2.325-5.219-4.662-10.434-6.995-15.649
			c0.007-1.314,0.014-2.629,0.021-3.943c0.644-2.146,2.147-4.462,1.762-6.404c-0.963-4.855,1.195-11.481-5.387-13.725
			c-4.551-1.552-9.812-1.067-13.178-5.559c-0.345-0.46-1.868-0.101-2.836-0.019c-6.476,0.551-12.948,1.13-19.422,1.699
			c-1.662-0.355-3.324-0.71-4.985-1.064c-1.333,0.342-2.667,0.683-4,1.024c-0.326,0.006-0.652,0.021-0.978,0.044
			c-4.309-0.915-8.264-4.103-13.038-2.03c-0.827-3.523-3.07-5.114-6.661-5.006c-2.76,0.083-5.525,0.045-8.287,0.062
			c-4.369-3.025-8.738-6.049-13.107-9.074c0.008-4.273,0.182-8.556-0.092-12.811c-0.067-1.044-1.591-1.998-2.444-2.993
			c-0.749,0.743-2.277,1.776-2.125,2.184c1.639,4.4-2.166,9.939,2.811,13.588c-0.338,1.355-0.677,2.71-1.015,4.067
			c1.305,0.644,2.61,1.288,3.915,1.932c1.47,0.872,3.02,1.633,4.39,2.639c2.312,1.697,3.295,6.313,7.639,3.32
			c4.664,1.027,9.327,2.053,13.991,3.081c0.436,0.608,0.872,1.218,1.308,1.826c3.938-2.845,5.532,0.494,7.906,2.676
			c2.043,1.878,4.783,3.071,6.762-0.521c2.012,0.002,4.023,0.005,6.036,0.007c3.366,3.306,7.307,1.85,10.727,0.669
			c5.295-1.828,9.77-2.995,14.544,1.723c2.06,2.035,6.244,1.821,9.346,2.951c1.282,0.467,2.767,1.577,3.235,2.76
			c0.571,1.443,0.168,3.272,0.187,4.934c-0.006,3.659-0.012,7.318-0.018,10.977c0.688,3.871,0.896,7.91,2.185,11.569
			c1.68,4.769,4.266,9.213,6.339,13.852c0.368,0.824,0.385,1.982,0.14,2.87c-1.116,4.049-2.41,8.047-3.564,12.085
			c-0.169,0.592-0.16,1.459,0.161,1.932c3.516,5.186-0.845,7.102-4.098,8.335c-7.878,2.99-14.028,8.239-20.463,13.373
			c-5.634,4.494-11.674,9.011-18.286,11.603c-6.871,2.695-14.663,11.387-15.313,18.49c-0.181,1.973-0.751,3.908-1.143,5.862
			c-1.002,3.473-2.815,7.026,1.004,10.017c0.268,2.819,0.536,5.641,0.816,8.59c-3.039-1.084-5.46-2.125-7.981-2.783
			c-1.655-0.433-3.534-0.03-5.17-0.499c-3.239-0.928-6.509-1.939-9.508-3.434c-1.6-0.798-2.985-2.495-3.897-4.108
			c-1.968-3.481-3.569-7.172-5.319-10.777c0.881-5.995-0.781-10.835-5.855-14.575c-2.334-1.72-4.071-4.25-6.078-6.414
			C108.306,175.982,107.632,174.983,106.958,173.984z M98.971,23.021c-7.877-0.009-15.758-0.115-23.632,0.063
			c-1.444,0.032-2.862,1.227-4.291,1.885c1.439,0.671,2.887,1.942,4.316,1.921c11.273-0.16,22.547-0.465,33.811-0.958
			c3.616-0.158,5.038,0.813,4.959,4.683c-0.057,2.772,1.143,5.571,1.782,8.356c0.784-0.049,1.568-0.099,2.353-0.147
			c0.542-2.777,1.682-5.592,1.504-8.321c-0.403-6.188-2.154-7.494-8.325-7.497C107.289,23.005,103.13,23.016,98.971,23.021z
			 M58.529,158.176c-5.275-3.181-9.81-5.487-13.833-8.479c-2.993-2.228-6.826-4.868-5.765-9.31
			c1.777-7.434-1.446-14.192-8.681-16.777c-0.603-0.215-0.956-1.138-1.417-1.738c-2.792-3.633-5.352-7.481-8.44-10.841
			c-2.705-2.941-6.09-5.309-1.937-10.545c-3.354-0.181-5.657-0.305-9.122-0.492c1.154,3.75,1.29,7.19,3.039,9.28
			c4.415,5.273,9.816,9.713,14.329,14.916c4.019,4.631,9.01,9.213,8.148,16.173c-0.708,5.72,2.23,9.496,5.959,12.656
			c3.487,2.956,7.442,5.644,11.633,7.383c2.67,1.109,7.212,1.568,9.045,0.055c4.175-3.444,7.2-8.286,11.012-12.951
			c-4.883-2.737-6.668-0.239-8.498,2.793C62.288,153.139,60.221,155.768,58.529,158.176z M48.71,105.829
			c6.492,2.027,12.524,1.087,18.491,0.769c0.561-0.029,1.373-1.038,1.544-1.723c0.836-3.335,2.063-6.716,2.063-10.081
			c0-3.833-1.151-7.666-1.802-11.5c-0.708,0.048-1.417,0.096-2.125,0.144c-0.625,4.636-1.582,9.259-1.774,13.913
			c-0.168,4.086-0.549,6.172-5.698,4.958C56.195,101.549,51.7,100.258,48.71,105.829z M71.475,57.611
			c3.889-5.044,2.557-25.559-1.205-28.333C69.05,39.02,67.374,48.457,71.475,57.611z M43.627,102.497
			c-7.168-0.716-14.046-1.486-20.943-1.979c-0.816-0.059-2.306,1.299-2.46,2.179c-0.166,0.946,0.934,3.052,1.384,3.026
			c7.204-0.425,14.393-1.106,21.581-1.773C43.305,103.938,43.37,103.377,43.627,102.497z M70.403,80.795
			c2.56-4.843,1.749-15.364-1.232-18.446C65.847,69.907,66.247,77.843,70.403,80.795z"/>
		<path fill-rule="evenodd" clip-rule="evenodd" fill="#EFEFEF" d="M208.008,101.982c2.332,5.216,4.669,10.43,6.994,15.649
			c3.094,6.946,2.912,13.944,0.436,21.025c-0.363,1.039-0.726,2.708-0.198,3.324c2.87,3.357,0.984,5.997-0.689,8.979
			c-1.765,3.143-4.643,3.94-7.553,5.525c-4.915,2.675-10.313,4.233-14.685,8.94c-6.185,6.658-13.468,12.891-22.873,15.745
			c-6.444,1.954-10.965,6.445-12.503,13.483c-0.624,2.853-1.958,5.548-2.97,8.315c-0.999-0.669-1.998-1.337-2.997-2.006
			c0.392-1.953,0.963-3.889,1.144-5.861c0.651-7.104,8.442-15.795,15.313-18.49c6.611-2.592,12.651-7.108,18.286-11.603
			c6.435-5.134,12.585-10.383,20.463-13.373c3.252-1.233,7.613-3.149,4.098-8.335c-0.321-0.473-0.33-1.34-0.161-1.932
			c1.154-4.038,2.449-8.036,3.564-12.085c0.245-0.888,0.229-2.046-0.14-2.87c-2.073-4.639-4.659-9.083-6.339-13.852
			c-1.289-3.659-1.497-7.698-2.186-11.569C206.01,101.324,207.009,101.653,208.008,101.982z"/>
		<path fill-rule="evenodd" clip-rule="evenodd" fill="#EFEFEF" d="M58.529,158.176c1.692-2.408,3.759-5.037,5.474-7.878
			c1.83-3.032,3.615-5.53,8.498-2.793c-3.812,4.665-6.836,9.507-11.012,12.951c-1.833,1.514-6.375,1.055-9.045-0.055
			c-4.19-1.739-8.146-4.427-11.633-7.383c-3.729-3.16-6.667-6.937-5.959-12.656c0.861-6.96-4.13-11.542-8.148-16.173
			c-4.513-5.203-9.914-9.643-14.329-14.916c-1.749-2.09-1.884-5.53-3.039-9.28c3.465,0.188,5.767,0.312,9.122,0.492
			c-4.154,5.237-0.768,7.604,1.937,10.545c3.089,3.36,5.648,7.208,8.44,10.841c0.46,0.6,0.814,1.523,1.417,1.738
			c7.235,2.585,10.458,9.344,8.681,16.777c-1.061,4.441,2.772,7.082,5.765,9.31C48.72,152.688,53.254,154.995,58.529,158.176z"/>
		<path fill-rule="evenodd" clip-rule="evenodd" fill="#EFEFEF" d="M153.97,207.977c1.274,2.983,3.086,5.869,3.635,8.98
			c0.374,2.114-0.344,5.303-1.817,6.614c-1.471,1.309-4.816,1.766-6.773,1.05c-7.72-2.821-15.27-6.135-22.753-9.549
			c-1.521-0.693-2.821-2.438-3.636-4.003c-1.929-3.711-3.538-7.59-5.174-11.445c-0.17-0.4,0.346-1.092,0.544-1.648
			c0.972-0.002,1.945-0.003,2.918-0.005c1.75,3.605,3.351,7.296,5.319,10.777c0.912,1.613,2.297,3.311,3.897,4.108
			c2.999,1.494,6.269,2.506,9.508,3.434c1.637,0.469,3.516,0.066,5.17,0.499c2.521,0.658,4.943,1.699,7.981,2.783
			c-0.28-2.949-0.548-5.771-0.815-8.59C152.639,209.98,153.304,208.979,153.97,207.977z"/>
		<path fill-rule="evenodd" clip-rule="evenodd" fill="#EFEFEF" d="M168.967,74.034c6.474-0.57,12.947-1.149,19.422-1.7
			c0.968-0.082,2.491-0.441,2.836,0.019c3.366,4.492,8.626,4.007,13.178,5.559c6.582,2.244,4.423,8.869,5.387,13.725
			c0.385,1.941-1.118,4.257-1.763,6.403c-0.021-1.766,0.313-3.638-0.183-5.257c-0.339-1.104-1.835-1.854-2.814-2.763
			c-0.019-1.662,0.384-3.491-0.187-4.934c-0.468-1.184-1.954-2.293-3.235-2.76c-3.102-1.13-7.286-0.916-9.346-2.951
			c-4.774-4.717-9.249-3.551-14.544-1.723c-3.42,1.181-7.36,2.637-10.727-0.669C169.339,77.132,170.378,76.403,168.967,74.034z"/>
		<path fill-rule="evenodd" clip-rule="evenodd" fill="#EFEFEF" d="M101.041,168.979c-0.695-1.446-1.646-2.825-2.044-4.349
			c-2.348-8.985-8.076-13.543-17.316-13.676c-1.469-0.021-3.277,0.154-4.305-0.605c-1.05-0.775-1.331-2.59-1.949-3.95
			c1.273-0.198,2.544-0.525,3.822-0.554c1.058-0.024,2.15,0.547,3.183,0.438c7.754-0.822,17.615,5.178,19.862,12.56
			c0.988,3.249,1.157,6.748,1.698,10.133C103.007,168.978,102.024,168.979,101.041,168.979z"/>
		<path fill-rule="evenodd" clip-rule="evenodd" fill="#EFEFEF" d="M98.971,23.021c4.159-0.005,8.318-0.016,12.478-0.015
			c6.171,0.003,7.921,1.309,8.325,7.497c0.178,2.729-0.963,5.544-1.504,8.321c-0.785,0.049-1.569,0.099-2.353,0.147
			c-0.639-2.786-1.839-5.584-1.782-8.356c0.079-3.871-1.343-4.841-4.959-4.683c-11.264,0.493-22.538,0.798-33.811,0.958
			c-1.43,0.021-2.877-1.25-4.317-1.921c7.874,0.009,15.751,0.115,23.621-0.064C96.115,24.871,97.537,23.679,98.971,23.021z"/>
		<path fill-rule="evenodd" clip-rule="evenodd" fill="#EFEFEF" d="M48.71,105.829c2.99-5.571,7.485-4.28,10.7-3.521
			c5.149,1.214,5.53-0.871,5.698-4.958c0.192-4.654,1.149-9.276,1.774-13.913c0.708-0.048,1.417-0.096,2.125-0.144
			c0.651,3.834,1.802,7.667,1.802,11.5c0,3.365-1.228,6.745-2.063,10.081c-0.172,0.686-0.983,1.694-1.544,1.723
			C61.234,106.916,55.202,107.855,48.71,105.829z"/>
		<path fill-rule="evenodd" clip-rule="evenodd" fill="#EFEFEF" d="M71.475,57.611c-4.101-9.154-2.424-18.591-1.205-28.333
			C74.032,32.052,75.364,52.566,71.475,57.611z"/>
		<path fill-rule="evenodd" clip-rule="evenodd" fill="#EFEFEF" d="M43.627,102.497c-0.257,0.88-0.322,1.441-0.438,1.452
			c-7.188,0.667-14.376,1.349-21.581,1.773c-0.451,0.026-1.55-2.08-1.384-3.026c0.154-0.88,1.644-2.237,2.46-2.179
			C29.581,101.011,36.459,101.781,43.627,102.497z"/>
		<path fill-rule="evenodd" clip-rule="evenodd" fill="#E6E6E6" d="M120.914,197.971c-0.973,0.002-1.946,0.003-2.918,0.005
			c-0.135-6.192-2.56-11.149-7.625-14.878c-1.39-1.022-2.297-2.702-3.425-4.081c0.679-0.679,1.356-1.356,2.035-2.035
			c2.007,2.164,3.744,4.694,6.078,6.414C120.132,187.136,121.795,191.976,120.914,197.971z"/>
		<path fill-rule="evenodd" clip-rule="evenodd" fill="#E6E6E6" d="M70.403,80.795c-4.156-2.953-4.557-10.888-1.232-18.446
			C72.152,65.431,72.963,75.952,70.403,80.795z"/>
		<path fill-rule="evenodd" clip-rule="evenodd" fill="#EFEFEF" d="M117.911,57.988c4.369,3.025,8.738,6.049,13.106,9.073
			c-0.01,0.95-0.02,1.901-0.029,2.852c-4.343,2.994-5.327-1.623-7.639-3.32c-1.37-1.006-2.92-1.768-4.389-2.639
			c-1.304-0.644-2.609-1.288-3.915-1.932c0.338-1.356,0.677-2.711,1.014-4.067C116.677,57.967,117.294,57.977,117.911,57.988z"/>
		<path fill-rule="evenodd" clip-rule="evenodd" fill="#E6E6E6" d="M117.911,57.988c-0.617-0.011-1.234-0.021-1.851-0.032
			c-4.976-3.649-1.171-9.188-2.81-13.588c-0.152-0.407,1.376-1.44,2.125-2.184c0.854,0.995,2.377,1.948,2.444,2.993
			C118.093,49.432,117.919,53.715,117.911,57.988z"/>
		<path fill-rule="evenodd" clip-rule="evenodd" fill="#E6E6E6" d="M130.989,69.913c0.009-0.951,0.019-1.902,0.029-2.852
			c2.763-0.016,5.527,0.022,8.288-0.061c3.591-0.108,5.834,1.483,6.662,5.006c-0.329,0.329-0.658,0.658-0.987,0.987
			C140.316,71.966,135.652,70.94,130.989,69.913z"/>
		<path fill-rule="evenodd" clip-rule="evenodd" fill="#EFEFEF" d="M144.979,72.994c0.329-0.329,0.658-0.658,0.987-0.987
			c4.774-2.073,8.729,1.115,13.038,2.029c0.65,0.979,1.301,1.959,1.952,2.939c-1.979,3.592-4.719,2.399-6.762,0.521
			c-2.375-2.182-3.968-5.521-7.906-2.676C145.852,74.211,145.415,73.602,144.979,72.994z"/>
		<path fill-rule="evenodd" clip-rule="evenodd" fill="#E6E6E6" d="M98.971,23.021c-1.434,0.658-2.855,1.851-4.303,1.884
			c-7.87,0.18-15.747,0.073-23.621,0.064c1.43-0.658,2.848-1.853,4.292-1.885C83.212,22.905,91.093,23.012,98.971,23.021z"/>
		<path fill-rule="evenodd" clip-rule="evenodd" fill="#E6E6E6" d="M160.956,76.975c-0.65-0.979-1.301-1.959-1.952-2.939
			c0.326-0.022,0.652-0.037,0.978-0.043c1.333-0.342,2.667-0.683,4-1.024c1.662,0.354,3.324,0.709,4.985,1.064
			c1.411,2.371,0.372,3.099-1.976,2.949C164.979,76.979,162.968,76.977,160.956,76.975z"/>
		<path fill-rule="evenodd" clip-rule="evenodd" fill="#E6E6E6" d="M205.03,90.018c0.979,0.909,2.476,1.659,2.814,2.763
			c0.496,1.619,0.162,3.492,0.183,5.257c-0.006,1.315-0.013,2.629-0.02,3.944c-0.999-0.329-1.998-0.658-2.996-0.987
			C205.018,97.336,205.024,93.677,205.03,90.018z"/>
		<path fill-rule="evenodd" clip-rule="evenodd" fill="#E6E6E6" d="M153.97,207.977c-0.666,1.002-1.331,2.004-1.996,3.006
			c-3.82-2.99-2.007-6.544-1.005-10.017c0.999,0.668,1.998,1.336,2.997,2.005C153.967,204.64,153.968,206.308,153.97,207.977z"/>
		<path fill-rule="evenodd" clip-rule="evenodd" fill="#EFEFEF" d="M108.98,176.981c-0.678,0.679-1.356,1.356-2.035,2.035
			c-1.968-2.688-3.935-5.377-5.902-8.066c0.993,0.768,1.911,1.673,3.002,2.259c0.861,0.463,1.934,0.532,2.912,0.775
			C107.632,174.983,108.306,175.982,108.98,176.981z"/>
		<path fill-rule="evenodd" clip-rule="evenodd" fill="#E6E6E6" d="M106.958,173.984c-0.978-0.243-2.051-0.313-2.912-0.775
			c-1.091-0.586-2.01-1.491-3.002-2.259c-0.001-0.657-0.002-1.313-0.003-1.971c0.984-0.001,1.967-0.002,2.95-0.004
			C104.98,170.646,105.969,172.315,106.958,173.984z"/>
		<path fill-rule="evenodd" clip-rule="evenodd" fill="#E6E6E6" d="M115.046,62.022c1.306,0.644,2.611,1.288,3.915,1.932
			C117.656,63.311,116.351,62.666,115.046,62.022z"/>
		<path fill-rule="evenodd" clip-rule="evenodd" fill="#EFEFEF" d="M163.982,72.968c-1.333,0.342-2.667,0.683-4,1.024
			C161.315,73.651,162.649,73.31,163.982,72.968z"/>
	</g>
</g>
<text transform="matrix(1.3796 0 0 1 77.8462 150.3574)"><tspan x="0" y="0" fill="#E07E00" font-family="'DINPro-CondBold'" font-size="95.04">UT</tspan><tspan x="82.113" y="0" font-family="'DINPro-CondBold'" font-size="95.04"> </tspan><tspan x="99.124" y="0" fill="#FFFFFF" font-family="'DINPro-CondBold'" font-size="95.04">DALLAS</tspan></text>
</svg>
