<?xml version="1.0" encoding="utf-8"?>
<!-- Generator: Adobe Illustrator 16.0.0, SVG Export Plug-In . SVG Version: 6.00 Build 0)  -->
<!DOCTYPE svg PUBLIC "-//W3C//DTD SVG 1.1//EN" "http://www.w3.org/Graphics/SVG/1.1/DTD/svg11.dtd">
<svg version="1.1" xmlns="http://www.w3.org/2000/svg" xmlns:xlink="http://www.w3.org/1999/xlink" x="0px" y="0px" width="1200px"
	 height="483px" viewBox="0 0 1200 483" enable-background="new 0 0 1200 483" xml:space="preserve">
<g id="Layer_1">
	<g>
		<g>
			<path fill-rule="evenodd" clip-rule="evenodd" fill="none" d="M-1,484.939C-1,323.626-1,162.313-1,1
				c400.616,0,801.232,0,1201.85,0c0,161.313,0,322.625,0,483.939C800.232,484.939,399.617,484.939-1,484.939z M140.569,319.96
				c5.303,0,7.614,0,9.925,0c328.245,0,656.49,0,984.735,0c28.369,0,47.623-19.313,47.623-47.767
				c0-69.481-0.947-138.983,0.502-208.434c0.522-25.046-22.685-46.268-46.105-46.205c-259.929,0.703-519.859,0.442-779.789,0.442
				c-1.956,0-3.911,0-4.274,0c-4.72,7.226-8.688,13.301-14.144,21.654c-2.623,3.213-6.99,8.563-6.646,8.142
				c-9.983,14.69-15.708,23.114-24.685,36.321c-0.765,0.903-5.335,6.295-9.906,11.686c0.459,0.387,0.918,0.773,1.376,1.161
				c-2.701,2.681-5.401,5.362-7.812,7.755c-0.32,2.143-0.563,3.764-0.361,2.417c-8.721,12.163-15.833,22.081-28.447,39.673
				c1.685-1.999-2.768,3.284-7.221,8.568c0.255,0.237,0.51,0.474,0.765,0.711c-2.968,4.153-5.935,8.307-8.902,12.46
				c0.149,0.105,0.298,0.211,0.448,0.316c-3.063,4.052-6.126,8.104-9.189,12.155c0.123,0.104,0.246,0.208,0.369,0.312
				c-7.233,9.871-14.467,19.742-21.7,29.613c0.248,0.162,0.496,0.324,0.744,0.486c-4.542,5.458-9.085,10.916-13.627,16.373
				c0.298,0.268,0.595,0.537,0.893,0.805c-7.248,9.863-14.495,19.725-16.938,23.049c-10.293,14.99-15.982,23.276-21.671,31.563
				c-0.066-0.055-0.133-0.108-0.2-0.162C158.151,294.771,149.971,306.491,140.569,319.96z M8.44,476.689
				C116.93,323.441,224.478,171.524,332.927,18.332c-109.78,0-217.256,0-324.487,0C8.44,170.78,8.44,322.895,8.44,476.689z"/>
			<path fill-rule="evenodd" clip-rule="evenodd" fill="#E88300" d="M140.569,319.96c9.402-13.469,17.582-25.188,25.762-36.906
				c0.067,0.054,0.134,0.107,0.2,0.162c5.689-8.286,11.378-16.572,21.671-31.563c2.442-3.324,9.69-13.186,16.938-23.049
				c-0.297-0.268-0.595-0.537-0.893-0.805c4.542-5.458,9.085-10.916,13.627-16.373c-0.248-0.162-0.496-0.324-0.744-0.486
				c7.233-9.871,14.467-19.742,21.7-29.613c-0.123-0.104-0.246-0.208-0.369-0.312c3.063-4.051,6.126-8.103,9.189-12.155
				c-0.149-0.105-0.299-0.211-0.448-0.316c2.967-4.153,5.935-8.307,8.902-12.46c-0.255-0.237-0.51-0.474-0.765-0.711
				c4.453-5.284,8.906-10.566,7.221-8.568c12.614-17.592,19.726-27.51,28.447-39.673c-0.202,1.348,0.041-0.273,0.361-2.417
				c2.411-2.394,5.111-5.075,7.812-7.755c-0.458-0.387-0.917-0.774-1.376-1.161c4.57-5.391,9.141-10.783,9.906-11.686
				c8.976-13.208,14.701-21.631,24.685-36.321c-0.345,0.422,4.023-4.929,6.646-8.142c5.456-8.353,9.424-14.428,14.144-21.654
				c0.363,0,2.318,0,4.274,0c259.93,0,519.86,0.261,779.789-0.442c23.421-0.063,46.628,21.159,46.105,46.205
				c-1.449,69.451-0.502,138.952-0.502,208.434c0,28.454-19.254,47.767-47.623,47.767c-328.245,0-656.49,0-984.735,0
				C148.183,319.96,145.872,319.96,140.569,319.96z"/>
			<path fill-rule="evenodd" clip-rule="evenodd" fill="#018542" d="M8.44,476.689c0-153.795,0-305.91,0-458.358
				c107.231,0,214.708,0,324.487,0C224.478,171.524,116.93,323.441,8.44,476.689z"/>
		</g>
	</g>
</g>
<g id="Layer_2">
	<path fill="none" d="M141.406,319.953l-0.797,0.016l0.392-0.531l0.577-0.016l0.203,0.109c0,0,0.016,0.125,0.016,0.188
		s-0.099,0.188-0.099,0.188"/>
</g>
</svg>
