<?xml version="1.0" encoding="utf-8"?>
<!-- Generator: Adobe Illustrator 16.0.0, SVG Export Plug-In . SVG Version: 6.00 Build 0)  -->
<!DOCTYPE svg PUBLIC "-//W3C//DTD SVG 1.1//EN" "http://www.w3.org/Graphics/SVG/1.1/DTD/svg11.dtd">
<svg version="1.1" id="Layer_1" xmlns="http://www.w3.org/2000/svg" xmlns:xlink="http://www.w3.org/1999/xlink" x="0px" y="0px"
	 width="1199.85px" height="482.939px" viewBox="0 0 1199.85 482.939" enable-background="new 0 0 1199.85 482.939"
	 xml:space="preserve">
<g>
	<g>
		<path fill-rule="evenodd" clip-rule="evenodd" fill="none" d="M1,484.939C1,323.626,1,162.313,1,1c400.283,0,800.565,0,1200.85,0
			c0,161.313,0,322.625,0,483.939C801.566,484.939,401.283,484.939,1,484.939z M141.611,319.632c348.609,0,695.289,0,1041.869,0
			c0-100.702,0-201.076,0-301.455c-277.299,0-554.228,0-829.477,0c-69.9,98.755-139.16,196.606-208.419,294.458
			c0.155,0.111,0.311,0.224,0.467,0.336C144.808,314.837,143.564,316.702,141.611,319.632z M9.318,476.863
			c108.628-153.445,216.15-305.325,324.554-458.453c-109.535,0-217.008,0-324.554,0.06C9.318,170.607,9.318,322.744,9.318,476.863z"
			/>
		<path fill-rule="evenodd" clip-rule="evenodd" fill="#E88300" d="M141.611,319.632c1.953-2.93,3.197-4.795,4.44-6.661
			c-0.156-0.112-0.312-0.225-0.467-0.336c69.259-97.851,138.519-195.702,208.419-294.458c275.25,0,552.178,0,829.477,0
			c0,100.378,0,200.752,0,301.455C836.9,319.632,490.221,319.632,141.611,319.632z"/>
		<path fill-rule="evenodd" clip-rule="evenodd" fill="#018542" d="M9.318,476.863c0-154.119,0-306.256,0.037-458.422
			c107.51-0.03,214.982-0.03,324.518-0.03C225.468,171.538,117.946,323.418,9.318,476.863z"/>
	</g>
</g>
</svg>
