<?xml version="1.0" encoding="utf-8"?>
<!-- Generator: Adobe Illustrator 16.0.0, SVG Export Plug-In . SVG Version: 6.00 Build 0)  -->
<!DOCTYPE svg PUBLIC "-//W3C//DTD SVG 1.1//EN" "http://www.w3.org/Graphics/SVG/1.1/DTD/svg11.dtd">
<svg version="1.1" id="Layer_1" xmlns="http://www.w3.org/2000/svg" xmlns:xlink="http://www.w3.org/1999/xlink" x="0px" y="0px"
	 width="240px" height="250px" viewBox="0 0 240 250" enable-background="new 0 0 240 250" xml:space="preserve">
<g>
	<g>
		<path fill-rule="evenodd" clip-rule="evenodd" fill="#DF7E01" d="M259.083,263.583c-86.522,0-173.045-0.031-259.567,0.105
			c-3.767,0.007-4.511-0.739-4.505-4.505c0.136-88.723,0.136-177.444,0-266.167c-0.005-3.766,0.739-4.511,4.505-4.505
			c86.522,0.136,173.045,0.105,259.567,0.105C259.083,80.272,259.083,171.929,259.083,263.583z M125.51,59.118
			c-0.036-11.615,0.159-23.239-0.33-34.834c-0.084-2.022-3.051-3.923-4.686-5.878c-15.015,0.022-30.029,0.046-45.043,0.068
			c-0.818,1.883-2.256,3.735-2.356,5.655c-0.884,16.934-1.493,33.883-2.264,50.824c-0.258,5.65-0.11,11.435-1.332,16.892
			c-1.024,4.574-2.917,9.626-6.098,12.78c-1.763,1.749-6.96,0.115-10.601-0.125c-13.43-0.884-26.851-1.978-40.294-2.484
			c-1.237-0.046-4.109,4.691-3.696,5.215c5.848,7.409,12.241,14.384,18.265,21.659c2.854,3.448,7.285,7.239,7.414,10.999
			c0.458,13.4,8.647,19.979,19.037,25.549c6.83,3.66,11.95,2.462,15.43-4.493c3.011-6.015,6.814-9.462,13.923-5.813
			c1.496,0.768,3.583,0.46,5.401,0.51c8.061,0.225,13.824,4.976,15.29,11.944c2.417,11.496,8.644,19.797,16.793,27.515
			c2.194,2.079,2.928,5.83,4.012,8.926c2.358,6.733,4.3,13.621,6.926,20.242c0.519,1.311,3.281,1.883,5.11,2.494
			c6.799,2.273,13.627,4.464,20.472,6.595c2.754,0.857,5.581,1.479,8.374,2.209c0.494-2.989,1.322-5.973,1.36-8.967
			c0.024-1.901-1.048-3.847-1.761-5.724c-3.347-8.825,3.456-26.84,11.702-31.412c7.778-4.312,15.617-8.563,23.053-13.421
			c5.621-3.672,10.221-9.033,16.048-12.239c7.639-4.204,18.299-5.306,13.694-18.379c-0.141-0.399,0.428-1.003,0.506-1.534
			c0.551-3.745,1.062-7.495,1.583-11.245c-0.271-0.707-0.544-1.414-0.817-2.122c0.052-2.202,0.998-4.98,0.011-6.516
			c-7.485-11.628-9.222-24.389-8.136-37.765c0.447-5.51-1.305-8.247-7.321-7.992c-2.317,0.098-5.229-0.898-6.971-2.423
			c-6.612-5.788-13.715-5.599-21.395-2.954c-1.993,0.688-4.299,1.073-6.368,0.826c-6.896-0.827-13.874-1.509-20.593-3.168
			c-8.844-2.185-17.473-5.243-26.194-7.926c-0.951-0.604-1.901-1.207-2.852-1.811c-1.203-0.2-2.405-0.4-3.61-0.6
			C126.635,59.836,126.071,59.477,125.51,59.118z"/>
		<path fill-rule="evenodd" clip-rule="evenodd" fill="#FEFEFE" d="M259.083,263.583c0-91.654,0-183.311,0-274.966
			c0.366,0.917,1.054,1.833,1.055,2.75c0.049,89.822,0.049,179.644,0,269.467C260.137,261.75,259.449,262.667,259.083,263.583z"/>
		<path fill-rule="evenodd" clip-rule="evenodd" fill="#FEFEFD" d="M127.198,60.193c1.203,0.2,2.405,0.399,3.608,0.6
			c0.977,1.555,1.954,3.11,2.931,4.667c8.307,2.633,16.617,5.253,24.918,7.904c3.188,1.018,6.402,3.109,9.523,2.963
			c7.957-0.373,15.86-1.8,23.803-2.632c1.549-0.163,3.296,0.181,4.754,0.774c5.951,2.42,11.633,5.877,17.795,7.266
			c4.135,0.931,5.295,2.219,4.754,5.873c-2.357,15.933,4.297,29.472,11.341,42.913c0.273,0.708,0.546,1.415,0.817,2.122
			c-1.778,5.104-5.667,10.561-4.88,15.231c1.454,8.645-4.129,9.808-9.252,12.291c-1.932,0.938-4.096,1.52-5.825,2.733
			c-10.141,7.112-19.688,15.246-30.422,21.282c-8.181,4.601-14.806,9.176-17.521,18.69c-2.249,7.879-4.208,15.346,0.011,23.168
			c0.802,1.485,0.234,3.767,0.032,5.652c-0.021,0.195-1.979,0.538-2.833,0.235c-6.713-2.382-13.343-5.001-20.064-7.355
			c-5.656-1.98-12.68-12.759-13.619-18.729c-0.757-4.802-2.992-9.622-5.559-13.831c-4.321-7.085-11.477-13.069-13.767-20.629
			c-4.597-15.176-20.614-24.998-35.324-19.262c-1.294,0.505-2.524,1.547-3.42,2.639c-8.269,10.089-8.244,10.105-20.243,3.964
			c-0.65-0.333-1.626-0.363-1.989-0.867c-2.692-3.736-5.818-7.299-7.742-11.415c-2.506-5.358-2.929-11.96-6.242-16.605
			c-4.581-6.425-11.114-11.437-16.603-17.25c-1.614-1.71-2.525-4.083-3.757-6.151c2.415-0.23,4.839-0.719,7.245-0.648
			c15.409,0.457,30.813,1.108,46.224,1.438c1.269,0.027,3.278-1.612,3.733-2.903c1.132-3.214,2.001-6.646,2.208-10.038
			c1.215-19.928,2.246-39.87,3.255-59.812c0.237-4.686,0.152-9.39,0.215-14.085c2.679,0.38,5.364,1.123,8.037,1.08
			c12.755-0.203,25.506-0.62,38.258-0.96l0.374-0.119c0.586,0.824,1.173,1.648,1.759,2.471c-0.055,5.304-0.108,10.606-0.164,15.909
			c-0.699,1.633-1.399,3.266-2.1,4.9c0.004,1.797,0.008,3.595,0.013,5.392c0.386,0.825,0.772,1.65,1.158,2.475
			c0.362,2.484,0.725,4.969,1.087,7.453C124.885,59.39,126.042,59.792,127.198,60.193z"/>
		<path fill-rule="evenodd" clip-rule="evenodd" fill="#E6CCAB" d="M75.305,20.388c-0.063,4.696,0.022,9.399-0.215,14.085
			c-1.009,19.942-2.04,39.883-3.255,59.812c-0.207,3.392-1.076,6.824-2.208,10.038c-0.455,1.291-2.464,2.93-3.733,2.903
			c-15.411-0.33-30.815-0.982-46.224-1.438c-2.406-0.071-4.83,0.418-7.245,0.648c1.232,2.068,2.144,4.441,3.757,6.151
			c5.489,5.813,12.021,10.824,16.603,17.25c3.313,4.646,3.736,11.247,6.242,16.605c1.924,4.116,5.05,7.679,7.742,11.415
			c0.363,0.504,1.339,0.534,1.989,0.867c11.999,6.142,11.974,6.125,20.243-3.964c0.896-1.092,2.125-2.134,3.42-2.639
			c14.709-5.736,30.727,4.086,35.324,19.262c2.29,7.56,9.446,13.544,13.767,20.629c2.566,4.209,4.802,9.029,5.559,13.831
			c0.939,5.971,7.963,16.749,13.619,18.729c6.722,2.354,13.352,4.974,20.064,7.355c0.854,0.303,2.813-0.04,2.833-0.235
			c0.202-1.886,0.77-4.167-0.032-5.652c-4.219-7.822-2.26-15.289-0.011-23.168c2.716-9.515,9.341-14.09,17.521-18.69
			c10.733-6.036,20.281-14.17,30.422-21.282c1.729-1.214,3.894-1.796,5.825-2.733c5.123-2.483,10.706-3.646,9.252-12.291
			c-0.787-4.671,3.102-10.128,4.88-15.231c-0.521,3.75-1.032,7.5-1.583,11.245c-0.078,0.531-0.646,1.135-0.506,1.534
			c4.604,13.073-6.056,14.175-13.694,18.379c-5.827,3.206-10.427,8.567-16.048,12.239c-7.436,4.857-15.274,9.109-23.053,13.421
			c-8.246,4.572-15.049,22.587-11.702,31.412c0.713,1.877,1.785,3.822,1.761,5.724c-0.038,2.994-0.866,5.978-1.36,8.967
			c-2.793-0.729-5.62-1.352-8.374-2.209c-6.845-2.131-13.673-4.321-20.472-6.595c-1.829-0.611-4.592-1.184-5.11-2.494
			c-2.626-6.621-4.567-13.509-6.926-20.242c-1.084-3.096-1.817-6.847-4.012-8.926c-8.149-7.718-14.375-16.019-16.793-27.515
			c-1.465-6.969-7.229-11.72-15.29-11.944c-1.819-0.05-3.906,0.258-5.401-0.51c-7.108-3.648-10.912-0.201-13.923,5.813
			c-3.48,6.955-8.601,8.153-15.43,4.493c-10.39-5.569-18.579-12.148-19.037-25.549c-0.129-3.76-4.559-7.551-7.414-10.999
			c-6.024-7.275-12.417-14.25-18.265-21.659c-0.413-0.523,2.458-5.261,3.696-5.215c13.443,0.507,26.864,1.6,40.294,2.484
			c3.641,0.241,8.837,1.874,10.601,0.125c3.181-3.154,5.074-8.206,6.098-12.78c1.222-5.458,1.074-11.242,1.332-16.892
			c0.771-16.941,1.38-33.89,2.264-50.824c0.1-1.92,1.538-3.772,2.356-5.655C75.402,19.112,75.354,19.75,75.305,20.388z"/>
		<path fill-rule="evenodd" clip-rule="evenodd" fill="#E2C094" d="M230.625,130.521c-7.044-13.441-13.698-26.98-11.341-42.913
			c0.541-3.654-0.619-4.942-4.754-5.873c-6.162-1.389-11.844-4.846-17.795-7.266c-1.458-0.593-3.205-0.937-4.754-0.774
			c-7.942,0.832-15.846,2.26-23.803,2.632c-3.121,0.146-6.335-1.945-9.523-2.963c-8.301-2.651-16.611-5.271-24.918-7.904
			c-0.026-0.952-0.053-1.904-0.079-2.856c8.722,2.683,17.351,5.741,26.194,7.926c6.719,1.66,13.696,2.342,20.593,3.168
			c2.069,0.247,4.375-0.138,6.368-0.826c7.68-2.646,14.782-2.834,21.395,2.954c1.742,1.525,4.653,2.521,6.971,2.423
			c6.017-0.255,7.769,2.482,7.321,7.992c-1.086,13.375,0.65,26.137,8.136,37.765C231.623,125.541,230.677,128.319,230.625,130.521z"
			/>
		<path fill-rule="evenodd" clip-rule="evenodd" fill="#E9E2D9" d="M75.305,20.388c0.049-0.638,0.097-1.276,0.146-1.914
			c15.014-0.022,30.029-0.046,45.043-0.068c0.368,0.7,0.737,1.401,1.105,2.102c-12.752,0.341-25.503,0.757-38.258,0.96
			C80.669,21.51,77.984,20.768,75.305,20.388z"/>
		<path fill-rule="evenodd" clip-rule="evenodd" fill="#E2C094" d="M121.6,20.507c-0.368-0.7-0.737-1.401-1.105-2.102
			c1.635,1.956,4.602,3.856,4.686,5.878c0.489,11.596,0.294,23.219,0.332,34.834c-0.596-0.044-1.189-0.087-1.785-0.131
			c-0.362-2.484-0.725-4.969-1.087-7.454c-0.386-0.825-0.772-1.65-1.158-2.474c-0.005-1.797-0.009-3.595-0.013-5.392
			c0.701-1.634,1.4-3.267,2.1-4.9c0.056-5.303,0.109-10.605,0.164-15.909c-0.586-0.824-1.172-1.647-1.759-2.471L121.6,20.507z"/>
		<path fill-rule="evenodd" clip-rule="evenodd" fill="#E5C9A5" d="M123.727,58.987c0.596,0.044,1.189,0.087,1.785,0.131
			c0.56,0.359,1.123,0.718,1.686,1.075C126.042,59.792,124.885,59.39,123.727,58.987z"/>
		<path fill-rule="evenodd" clip-rule="evenodd" fill="#E5C9A5" d="M133.658,62.604c0.026,0.952,0.053,1.904,0.079,2.856
			c-0.977-1.556-1.954-3.111-2.931-4.667C131.757,61.396,132.707,62,133.658,62.604z"/>
		<path fill-rule="evenodd" clip-rule="evenodd" fill="#E5C9A5" d="M123.568,38.768c-0.699,1.633-1.398,3.266-2.1,4.9
			C122.169,42.034,122.869,40.4,123.568,38.768z"/>
		<path fill-rule="evenodd" clip-rule="evenodd" fill="#E5C9A5" d="M121.974,20.388c0.587,0.824,1.173,1.646,1.759,2.471
			C123.146,22.036,122.56,21.211,121.974,20.388z"/>
		<path fill-rule="evenodd" clip-rule="evenodd" fill="#E5C9A5" d="M121.481,49.06c0.386,0.824,0.772,1.648,1.158,2.474
			C122.254,50.709,121.867,49.884,121.481,49.06z"/>
	</g>
</g>
</svg>
