<?xml version="1.0" encoding="utf-8"?>
<!-- Generator: Adobe Illustrator 16.0.0, SVG Export Plug-In . SVG Version: 6.00 Build 0)  -->
<!DOCTYPE svg PUBLIC "-//W3C//DTD SVG 1.1//EN" "http://www.w3.org/Graphics/SVG/1.1/DTD/svg11.dtd">
<svg version="1.1" id="UTDLOGO_xA0_Image_1_" xmlns="http://www.w3.org/2000/svg" xmlns:xlink="http://www.w3.org/1999/xlink"
	 x="0px" y="0px" width="599.925px" height="263.967px" viewBox="0 0 599.925 263.967" enable-background="new 0 0 599.925 263.967"
	 xml:space="preserve">
<g>
	<g>
		<path fill-rule="evenodd" clip-rule="evenodd" fill="#E88300" d="M0.962,264.95c0-87.989,0-175.978,0-263.967
			c199.975,0,399.949,0,599.925,0c0,87.919,0,175.838,0,263.967C400.718,264.95,200.84,264.95,0.962,264.95z M78.357,153.946
			c3.236-2.734,5.373-5.484,4.574-9.244c0.964-1.063,1.746-1.922,2.077-2.287c1.913-0.651,3.49-0.787,4.478-1.622
			c1.382-1.168,2.713-0.729,4.142-0.723c2.83,3.16,5.746,6.273,9.777,7.773c3.045,1.133,6.278,1.758,9.678,2.677
			c0.203,0.328,0.568,0.846,0.86,1.402c3.53,6.723,6.35,13.823,10.978,19.956c2.078,2.753,3.341,6.21,6.624,7.395
			c1.182,3.423,2.157,6.693,3.438,9.838c1.336,3.274,2.968,6.429,4.479,9.65c0.579,0.339,1.257,1.084,1.901,1.055
			c2.968-0.135,5.592,1.143,8.065,2.302c2.572,1.205,5.343,1.483,7.95,2.543c4.503,1.828,9.334,3.354,15.133,1.774
			c-2.676-5.258-3.182-11.025-4.404-16.916c0.175-0.368,0.819-1.081,0.785-1.759c-0.267-5.355,1.845-10.21,3.021-15.263
			c0.412-1.771,0.974-3.781,2.513-4.375c3.863-1.488,6.975-4.103,10.474-6.115c4.712-2.71,9.128-5.741,13.058-9.52
			c2.575-2.475,5.154-5.046,8.116-6.987c2.142-1.404,4.25-2.931,6.943-3.75c2.725-0.829,6.229-1.719,7.14-5.478
			c0.472-1.948,1.273-3.817,1.743-5.767c0.267-1.108,0.125-2.221-0.912-3.134c-0.324-0.286-0.299-1.456,0.017-1.9
			c2.064-2.896,0.58-6.098,0.875-9.13c0.316-3.25-1.605-5.921-2.737-8.832c-1.463-3.764-4.07-6.658-6.303-10.25
			c0-8.495,0-17.28,0-26.168c-4.614-0.11-8.871-1.237-12.808-3.175c-4.219-2.076-8.205-2.55-12.833-1.11
			c-2.787,0.867-5.863,1.5-9.039,1.253c-4.472-0.345-8.993-0.15-13.489-0.049c-1.378,0.031-2.745,0.517-4.117,0.794
			c-4.042,0.08-7.093-2.741-10.744-4.019c-3.739-1.308-7.616-1.631-11.229-2.953c-1.639-1.259-3.289-2.525-5.118-3.93
			c-3.152,0.942-5.598-1.179-8.515-2.327c0-10.24,0-20.548-0.008-30.855c0-0.142-0.091-0.301-0.181-0.42
			c-0.095-0.127-0.239-0.217-0.138-0.13c-15.001,0-29.779,0-44.727,0c0,25.639,0,51.085,0,76.882c-18.071,0-35.973,0-54.136,0
			c1.036,1.518,1.697,2.787,2.632,3.806c6.32,6.891,13.373,12.982,20.712,18.752c3.409,0.53,3.322,3.713,3.693,5.843
			c0.55,3.157,1.25,6.069,2.92,8.834c1.675,2.774,3.014,5.75,4.363,8.373c5.066,2.346,10.212,3.793,14.365,7.282
			C75.747,153.946,77.075,153.946,78.357,153.946z M229.968,144.965c10.867,0,21.347,0.077,31.825-0.06
			c2.321-0.03,4.668-0.681,6.943-1.279c6.957-1.832,12.376-6.178,16.529-11.726c2.639-3.527,4.728-7.728,4.698-12.513
			c-0.005-0.891,0.543-1.774,0.705-2.684c0.169-0.951,0.601-2.215,0.178-2.841c-1.224-1.813-0.591-3.781-0.979-5.622
			c-0.475-2.26-0.859-4.533-1.813-6.731c-2.913-6.72-7.524-11.47-14.332-14.346c-3.793-1.602-7.753-2.884-11.673-3.043
			c-10.606-0.431-21.241-0.147-31.99-0.147c0,1.025,0,1.811,0,2.601c1.894,0.496,3.846,1.007,6.026,1.577
			c0.3,2.026,0.801,3.866,0.81,5.708c0.067,13.653,0.071,27.308-0.002,40.962c-0.011,2.006-0.531,4.011-0.803,5.928
			c-2.36,0.65-4.28,1.18-6.123,1.688C229.968,143.222,229.968,143.877,229.968,144.965z M380.449,127.045
			c-1.206,2.227-2.323,4.256-3.41,6.301c-2.951,5.551-7.535,8.484-13.844,8.61c-2.644,0.053-5.291,0.009-7.629,0.009
			c-1.679-0.942-1.671-2.218-1.668-3.599c0.032-13.654,0.02-27.309,0.02-40.759c0.924-0.988,1.717-1.837,2.483-2.657
			c1.402,0,2.73,0,4.347,0c0.391-0.799,0.827-1.695,1.453-2.979c-9.229,0-17.868-0.001-26.507,0.007c-0.145,0-0.306,0.075-0.43,0.16
			c-0.133,0.09-0.23,0.232-0.42,0.433c0.413,3.568,5.652,1.71,6.075,5.389c0,12.536,0.038,25.2-0.038,37.863
			c-0.013,2.008-0.536,4.014-0.78,5.718c-2.017,0.602-3.5,1.043-4.864,1.449c-2.917-0.527-4.493-2.36-5.302-4.898
			c-1.923-6.032-4.934-11.625-7.257-17.496c-2.246-5.676-4.838-11.328-7.394-16.934c-1.584-3.474-3.427-6.91-4.378-10.681
			c-0.509-2.017-1.92-2.401-3.821-1.758c-0.093,0.79,0.019,1.677-0.31,2.35c-3.517,7.212-6.466,14.648-9.197,22.188
			c-1.308,3.613-3.347,6.978-4.467,10.635c-1.184,3.861-3.444,7.232-4.47,11.176c-0.455,1.748-1.611,3.765-3.944,4.475
			c-0.824,0.25-1.363,1.439-2.662,2.917c3.581,0,6.198,0.049,8.813-0.014c2.703-0.064,5.449,0.274,8.654-0.32
			c-1.84-2.84-4.322-2.626-6.463-2.74c-0.502-4.655,0.53-8.526,3.094-11.771c5.697,0,11.148,0,16.604,0
			c2.515,3.609,3.7,7.395,3.058,11.497c-2.146,0.652-4.043,1.229-6.021,1.829c0.213,0.638,0.358,1.076,0.454,1.363
			c23.27,0,46.383,0,69.685,0c0-1.295-0.237-2.497,0.043-3.563c0.967-3.679,2.011-7.321,2.003-11.181
			c-0.002-0.529,0.72-1.025,0.908-1.601c0.13-0.396-0.084-0.903-0.152-1.419C381.925,127.045,381.281,127.045,380.449,127.045z
			 M517.649,92.952c-1.61,0-3.279,0.518-4.21-0.092c-3.541-2.317-7.406-1.83-11.236-1.886c-5.243-0.077-9.285,1.886-12.287,6.406
			c-6.147,9.256-2.255,18.121,5.068,22.549c5.553,3.357,11.321,6.358,16.751,9.382c4.118,6.968,0.886,11.085-3.283,13.601
			c-12.182,1.415-17.452-6.014-18.867-15.97c-0.886,0.061-1.789,0.122-2.515,0.172c0,6.459,0,12.578,0,18.911
			c1.082-0.107,1.973-0.195,2.659-0.263c0.213-0.829,0.328-1.278,0.462-1.797c1.427,0,3.047-0.499,4.014,0.085
			c4.52,2.732,9.432,1.737,14.219,1.877c0.892,0.026,1.786-0.514,2.7-0.674c6.062-1.064,9.096-5.552,11.378-10.539
			c0.942-2.06,2.19-4.481,1.352-6.9c-1.875-5.406-4.097-10.53-10.074-12.91c-3.284-1.307-6.25-3.393-9.47-4.893
			c-2.352-1.097-4.442-2.466-6.191-4.341c-2.938-3.149-2.98-6.078-0.179-9.226c0.773-0.869,1.633-1.662,2.436-2.473
			c1.867,0,3.722-0.176,5.525,0.052c1.676,0.211,3.295,0.854,4.823,1.273c3.256,3.268,6.539,6.32,7.277,11.141
			c0.104,0.682,1.125,2.186,2.666,1.276c0-5.57,0-11.139,0-16.586c-1.014,0-1.799,0-2.542,0
			C517.966,91.735,517.848,92.187,517.649,92.952z M458.094,144.789c8.535,0,17.097,0,25.837,0c-0.034-1.678-0.638-2.74-2.194-2.789
			c-1.775-0.056-2.286-0.981-2.939-2.528c-2.392-5.67-5.442-11.078-7.604-16.826c-3.145-8.364-7.146-16.355-10.292-24.708
			c-0.65-1.728-1.325-3.446-1.999-5.165c-0.649-1.656-1.926-2.061-3.701-1.709c-1.742,4.503-3.498,9.103-5.301,13.683
			c-2.312,5.869-4.332,11.882-7.099,17.528c-2.179,4.444-3.932,9.071-5.687,13.63c-1.318,3.424-2.938,5.713-6.176,7.098
			c-0.498,0.213-0.782,0.923-1.456,1.768c6.185,0,11.749,0,17.289,0c0.06-0.513,0.097-0.83,0.184-1.576
			c-1.971-0.567-4.02-1.156-6.019-1.731c-0.352-4.298,0.613-8.195,3.193-11.31c5.765,0,11.21,0,16.849,0
			c1.046,3.948,4.218,7.254,2.643,11.483c-2.049,0.641-3.924,1.228-5.763,1.802C457.958,144.006,458.012,144.316,458.094,144.789z
			 M386.579,95.071c1.585,2.575,2.328,4.872,2.331,7.24c0.01,6.996,0.004,13.993,0.004,20.99c0,4.166,0.397,8.383-0.146,12.477
			c-0.339,2.559,0.095,6.479-4.561,6.462c-0.77-0.003-1.542,0.886-2.299,1.354c0.045,0.356,0.085,0.673,0.148,1.18
			c14.874,0,29.771,0,43.663,0c3.747-2.479,1.522-5.932,2.999-8.814c1.278-2.497,0.924-5.829,1.304-8.892c-1.249,0-2.033,0-2.786,0
			c-2.697,9.125-8.367,16.562-23.919,14.803c-1.564-1.5-2.44-3.238-2.43-5.501c0.052-11.661-0.06-23.325,0.101-34.983
			c0.028-2.086,1.061-4.157,1.688-6.448c1.987,0,3.561,0,5.183,0c0.462-1.047,0.804-1.82,1.309-2.967
			c-9.19,0-17.826-0.005-26.462,0.021c-0.265,0-0.528,0.313-1.023,0.626c0.514,0.783,1.024,1.562,1.483,2.262
			C384.45,94.952,385.57,95.016,386.579,95.071z"/>
		<path fill-rule="evenodd" clip-rule="evenodd" fill="none" d="M0.962,264.95c199.878,0,399.756,0,599.925,0
			c0-88.129,0-176.047,0-263.967c0.333,0,0.958-0.009,0.958,0.001c0.043,1.499,0.041,2.999,0.041,4.499
			c0,86.822,0,173.645,0,260.467c-198.808,0-397.616,0-596.424,0c-1.5,0-3,0.002-4.499-0.041
			C0.954,265.908,0.962,265.283,0.962,264.95z"/>
		<path fill-rule="evenodd" clip-rule="evenodd" fill="none" d="M78.357,153.946c-1.282,0-2.61,0-3.914,0
			c-4.153-3.489-9.299-4.937-14.365-7.282c-1.35-2.623-2.688-5.599-4.363-8.373c-1.67-2.766-2.371-5.678-2.92-8.834
			c-0.371-2.13-0.284-5.313-3.693-5.843c-7.339-5.771-14.393-11.862-20.712-18.752c-0.935-1.02-1.596-2.289-2.632-3.806
			c18.164,0,36.065,0,54.136,0c0-25.796,0-51.243,0-76.882c14.948,0,29.726,0,44.727,0c-0.101-0.087,0.043,0.003,0.138,0.13
			c0.09,0.119,0.181,0.278,0.181,0.42c0.008,10.307,0.008,20.615,0.008,30.855c2.917,1.148,5.363,3.269,8.515,2.327
			c1.829,1.405,3.479,2.671,5.118,3.93c3.612,1.321,7.489,1.645,11.229,2.953c3.65,1.278,6.702,4.099,10.744,4.019
			c1.372-0.277,2.739-0.763,4.117-0.794c4.496-0.102,9.017-0.296,13.489,0.049c3.176,0.246,6.252-0.387,9.039-1.253
			c4.628-1.44,8.615-0.966,12.833,1.11c3.938,1.938,8.194,3.064,12.808,3.175c0,8.888,0,17.673,0,26.168
			c2.233,3.591,4.84,6.485,6.303,10.25c1.132,2.911,3.054,5.582,2.737,8.832c-0.295,3.032,1.188,6.234-0.875,9.13
			c-0.316,0.444-0.341,1.614-0.017,1.9c1.036,0.913,1.179,2.026,0.912,3.134c-0.47,1.949-1.271,3.818-1.743,5.767
			c-0.911,3.759-4.415,4.648-7.14,5.478c-2.693,0.819-4.801,2.346-6.943,3.75c-2.961,1.941-5.541,4.513-8.116,6.987
			c-3.929,3.778-8.345,6.81-13.058,9.52c-3.499,2.013-6.611,4.627-10.474,6.115c-1.539,0.594-2.101,2.604-2.513,4.375
			c-1.176,5.053-3.288,9.907-3.021,15.263c0.034,0.678-0.61,1.391-0.785,1.759c1.222,5.891,1.728,11.658,4.404,16.916
			c-5.799,1.579-10.63,0.054-15.133-1.774c-2.607-1.06-5.378-1.338-7.95-2.543c-2.473-1.159-5.097-2.437-8.065-2.302
			c-0.644,0.029-1.322-0.716-1.901-1.055c-1.51-3.222-3.143-6.376-4.479-9.65c-1.282-3.145-2.256-6.415-3.438-9.838
			c-3.282-1.185-4.546-4.642-6.624-7.395c-4.627-6.133-7.447-13.233-10.978-19.956c-0.292-0.557-0.657-1.074-0.86-1.402
			c-3.399-0.919-6.633-1.544-9.678-2.677c-4.031-1.5-6.947-4.613-9.777-7.773c-1.429-0.006-2.76-0.445-4.142,0.723
			c-0.988,0.835-2.565,0.971-4.478,1.622c-0.332,0.365-1.113,1.225-2.077,2.287C83.729,148.462,81.593,151.212,78.357,153.946z
			 M135.945,92.716c0,10.715,0.104,22.372-0.051,34.025c-0.063,4.732-1.478,9.018-5.409,12.25c-4.3,3.535-13.944,4.048-18.313,0.688
			c-0.393-0.302-0.825-0.64-1.047-1.063c-1.598-3.042-3.318-5.917-3.252-9.672c0.204-11.652,0.104-23.31,0.048-34.965
			c-0.01-2.13,0.127-4.14,1.654-6.212c1.891-0.347,4.043-0.743,6.28-1.153c0-0.74,0-1.524,0-2.462c-9.971,0-19.866,0-29.799,0
			c0,0.963,0,1.747,0,2.403c2.058,0.573,3.997,1.113,6.084,1.695c0.287,2.04,0.761,3.901,0.775,5.765
			c0.074,10.157,0.221,20.319-0.048,30.469c-0.123,4.64,1.22,8.68,3.053,12.76c1.829,4.07,5.35,6.097,9.119,7.647
			c2.562,1.055,5.383,1.784,8.139,1.996c5.772,0.442,11.335-0.196,16.791-2.804c5.771-2.757,8.31-7.604,9.853-13.082
			c0.988-3.507,1.019-7.345,1.077-11.042c0.14-8.989,0.045-17.982,0.045-26.973c0-1.288,0-2.575,0-3.863
			c1.58-2.812,6.524-0.752,7.061-4.941c-7.186,0-14.083,0-21.461,0c0.682,1.144,1.144,1.921,1.635,2.744
			C131.706,86.788,134.635,87.6,135.945,92.716z M152.728,101.879c0.629-4.798,1.658-8.853,5.31-11.416
			c3.488-2.448,7.641-3.007,11.903-3.449c0,13.372,0.039,26.348-0.021,39.324c-0.02,4.372,0.666,8.815-1.385,13.542
			c-0.393,0.368-1.24,1.161-2.34,2.191c-1.471,0-3.257,0-5.292,0c0.074,1.095,0.136,1.998,0.186,2.734c10.783,0,21.226,0,31.758,0
			c0-0.941,0-1.725,0-2.684c-1.846,0-3.636,0-5.25,0c-0.999-0.998-1.823-1.822-2.578-2.577c-0.367-2.6-1.014-5.118-1.031-7.642
			c-0.099-14.48-0.048-28.962-0.048-42.167c0.795-1.617,1.166-2.37,1.411-2.868c13.81,2.955,14.25,6.697,15.871,15.053
			c0.657,0.355,1.432,0.775,2.541,1.375c0-6.714,0-12.943,0-19.167c-15.85-0.624-49.608-0.392-53.642,0.331
			c0,6.145,0,12.257,0,18.846C151.236,102.697,152.012,102.271,152.728,101.879z"/>
		<path fill-rule="evenodd" clip-rule="evenodd" fill="none" d="M229.968,144.965c0-1.088,0-1.743,0-2.53
			c1.843-0.508,3.763-1.037,6.123-1.688c0.272-1.917,0.792-3.922,0.803-5.928c0.073-13.654,0.069-27.309,0.002-40.962
			c-0.009-1.842-0.51-3.681-0.81-5.708c-2.18-0.57-4.132-1.081-6.026-1.577c0-0.79,0-1.575,0-2.601
			c10.749,0,21.383-0.283,31.99,0.147c3.92,0.159,7.88,1.441,11.673,3.043c6.808,2.875,11.419,7.626,14.332,14.346
			c0.954,2.199,1.337,4.471,1.813,6.731c0.387,1.841-0.246,3.809,0.979,5.622c0.423,0.626-0.009,1.89-0.178,2.841
			c-0.162,0.91-0.71,1.793-0.705,2.684c0.03,4.786-2.059,8.986-4.698,12.513c-4.152,5.548-9.572,9.894-16.529,11.726
			c-2.274,0.599-4.622,1.249-6.943,1.279C251.315,145.042,240.835,144.965,229.968,144.965z M252.056,139.592
			c0.697,0.696,1.52,1.52,2.343,2.344c2.222-0.061,4.546,0.569,6.551-0.97c5.045-0.076,7.402-3.751,10.012-7.264
			c3.313-4.46,3.129-9.842,3.809-14.84c0.977-7.176,0.004-11.083-2.862-19.666c-2.651-7.937-5.22-9.375-11.055-11.362
			c-3.47-1.181-6.083-1.007-8.797,1.457C252.056,105.968,252.056,122.717,252.056,139.592z"/>
		<path fill-rule="evenodd" clip-rule="evenodd" fill="none" d="M380.449,127.045c0.832,0,1.477,0,2.268,0
			c0.068,0.516,0.282,1.023,0.152,1.419c-0.188,0.576-0.91,1.072-0.908,1.601c0.008,3.859-1.036,7.502-2.003,11.181
			c-0.28,1.066-0.043,2.269-0.043,3.563c-23.302,0-46.415,0-69.685,0c-0.096-0.287-0.241-0.726-0.454-1.363
			c1.978-0.601,3.875-1.177,6.021-1.829c0.643-4.103-0.543-7.888-3.058-11.497c-5.456,0-10.907,0-16.604,0
			c-2.564,3.244-3.596,7.115-3.094,11.771c2.141,0.114,4.623-0.1,6.463,2.74c-3.205,0.595-5.951,0.256-8.654,0.32
			c-2.614,0.063-5.231,0.014-8.813,0.014c1.298-1.478,1.837-2.667,2.662-2.917c2.333-0.71,3.489-2.727,3.944-4.475
			c1.026-3.944,3.286-7.315,4.47-11.176c1.121-3.658,3.159-7.022,4.467-10.635c2.731-7.54,5.68-14.977,9.197-22.188
			c0.328-0.673,0.217-1.56,0.31-2.35c1.901-0.643,3.313-0.259,3.821,1.758c0.951,3.771,2.794,7.207,4.378,10.681
			c2.556,5.606,5.147,11.257,7.394,16.934c2.323,5.871,5.334,11.463,7.257,17.496c0.809,2.538,2.385,4.371,5.302,4.898
			c1.364-0.406,2.848-0.848,4.864-1.449c0.244-1.704,0.768-3.71,0.78-5.718c0.076-12.663,0.038-25.327,0.038-37.863
			c-0.423-3.679-5.662-1.821-6.075-5.389c0.189-0.2,0.287-0.343,0.42-0.433c0.124-0.085,0.285-0.16,0.43-0.16
			c8.639-0.008,17.277-0.007,26.507-0.007c-0.626,1.284-1.063,2.181-1.453,2.979c-1.616,0-2.944,0-4.347,0
			c-0.767,0.82-1.56,1.668-2.483,2.657c0,13.45,0.013,27.105-0.02,40.759c-0.003,1.381-0.011,2.656,1.668,3.599
			c2.338,0,4.985,0.044,7.629-0.009c6.309-0.126,10.893-3.06,13.844-8.61C378.125,131.302,379.243,129.272,380.449,127.045z
			 M304.338,108.573c-3.235,5.575-4.774,11.532-7.313,17.217c4.654,0,9.206,0,14.354,0
			C308.987,119.941,306.74,114.444,304.338,108.573z"/>
		<path fill-rule="evenodd" clip-rule="evenodd" fill="none" d="M517.649,92.952c0.199-0.766,0.317-1.217,0.476-1.824
			c0.743,0,1.528,0,2.542,0c0,5.447,0,11.016,0,16.586c-1.541,0.91-2.562-0.594-2.666-1.276c-0.738-4.821-4.021-7.873-7.277-11.141
			c-1.528-0.42-3.147-1.063-4.823-1.273c-1.804-0.228-3.658-0.052-5.525-0.052c-0.803,0.812-1.662,1.604-2.436,2.473
			c-2.802,3.148-2.759,6.077,0.179,9.226c1.749,1.875,3.84,3.245,6.191,4.341c3.22,1.5,6.186,3.585,9.47,4.893
			c5.978,2.38,8.199,7.504,10.074,12.91c0.839,2.418-0.409,4.84-1.352,6.9c-2.282,4.987-5.316,9.475-11.378,10.539
			c-0.914,0.16-1.809,0.7-2.7,0.674c-4.787-0.14-9.699,0.855-14.219-1.877c-0.967-0.584-2.587-0.085-4.014-0.085
			c-0.134,0.519-0.249,0.968-0.462,1.797c-0.687,0.067-1.577,0.155-2.659,0.263c0-6.333,0-12.451,0-18.911
			c0.726-0.05,1.629-0.111,2.515-0.172c1.415,9.957,6.686,17.385,18.867,15.97c4.169-2.516,7.401-6.633,3.283-13.601
			c-5.43-3.024-11.198-6.025-16.751-9.382c-7.323-4.428-11.216-13.292-5.068-22.549c3.002-4.52,7.044-6.482,12.287-6.406
			c3.83,0.056,7.695-0.431,11.236,1.886C514.37,93.47,516.039,92.952,517.649,92.952z"/>
		<path fill-rule="evenodd" clip-rule="evenodd" fill="none" d="M458.094,144.789c-0.082-0.473-0.136-0.783-0.234-1.351
			c1.839-0.574,3.714-1.161,5.763-1.802c1.575-4.229-1.597-7.535-2.643-11.483c-5.639,0-11.084,0-16.849,0
			c-2.58,3.114-3.545,7.012-3.193,11.31c1.999,0.575,4.048,1.164,6.019,1.731c-0.087,0.746-0.124,1.063-0.184,1.576
			c-5.54,0-11.104,0-17.289,0c0.674-0.845,0.958-1.555,1.456-1.768c3.238-1.385,4.857-3.674,6.176-7.098
			c1.755-4.559,3.508-9.186,5.687-13.63c2.767-5.646,4.787-11.659,7.099-17.528c1.803-4.581,3.559-9.18,5.301-13.683
			c1.775-0.352,3.052,0.053,3.701,1.709c0.674,1.719,1.349,3.437,1.999,5.165c3.146,8.353,7.147,16.344,10.292,24.708
			c2.161,5.749,5.212,11.156,7.604,16.826c0.653,1.547,1.164,2.473,2.939,2.528c1.557,0.049,2.16,1.111,2.194,2.789
			C475.191,144.789,466.629,144.789,458.094,144.789z M445,125.796c4.612,0,9.163,0,14.132,0
			c-2.254-5.781-4.408-11.303-6.715-17.218C448.834,114.039,447.948,120.276,445,125.796z"/>
		<path fill-rule="evenodd" clip-rule="evenodd" fill="none" d="M386.579,95.071c-1.009-0.056-2.129-0.119-3.413-0.19
			c-0.459-0.7-0.97-1.479-1.483-2.262c0.495-0.313,0.759-0.626,1.023-0.626c8.636-0.026,17.271-0.021,26.462-0.021
			c-0.505,1.146-0.847,1.92-1.309,2.967c-1.622,0-3.195,0-5.183,0c-0.627,2.292-1.659,4.362-1.688,6.448
			c-0.16,11.659-0.049,23.322-0.101,34.983c-0.011,2.263,0.865,4.001,2.43,5.501c15.552,1.759,21.222-5.678,23.919-14.803
			c0.753,0,1.537,0,2.786,0c-0.38,3.063-0.025,6.395-1.304,8.892c-1.477,2.883,0.748,6.336-2.999,8.814c-13.893,0-28.789,0-43.663,0
			c-0.063-0.507-0.104-0.823-0.148-1.18c0.757-0.469,1.529-1.357,2.299-1.354c4.655,0.017,4.222-3.903,4.561-6.462
			c0.543-4.094,0.146-8.311,0.146-12.477c0-6.997,0.006-13.994-0.004-20.99C388.907,99.943,388.164,97.646,386.579,95.071z"/>
		<path fill-rule="evenodd" clip-rule="evenodd" fill="#E88300" d="M135.945,92.716c-1.311-5.116-4.24-5.928-7.767-5.789
			c-0.491-0.823-0.953-1.601-1.635-2.744c7.378,0,14.276,0,21.461,0c-0.536,4.189-5.48,2.129-7.061,4.941c0,1.288,0,2.575,0,3.863
			c0,8.991,0.095,17.984-0.045,26.973c-0.058,3.697-0.089,7.534-1.077,11.042c-1.543,5.479-4.082,10.325-9.853,13.082
			c-5.456,2.607-11.018,3.246-16.791,2.804c-2.755-0.212-5.577-0.941-8.139-1.996c-3.769-1.551-7.291-3.577-9.119-7.647
			c-1.833-4.08-3.176-8.12-3.053-12.76c0.269-10.15,0.122-20.312,0.048-30.469c-0.014-1.864-0.488-3.725-0.775-5.765
			c-2.088-0.582-4.026-1.122-6.084-1.695c0-0.656,0-1.44,0-2.403c9.933,0,19.829,0,29.799,0c0,0.938,0,1.722,0,2.462
			c-2.237,0.41-4.389,0.806-6.28,1.153c-1.526,2.072-1.664,4.083-1.654,6.212c0.057,11.656,0.156,23.313-0.048,34.965
			c-0.065,3.755,1.654,6.63,3.252,9.672c0.222,0.423,0.654,0.761,1.047,1.063c4.368,3.359,14.013,2.847,18.313-0.688
			c3.931-3.231,5.346-7.518,5.409-12.25C136.049,115.088,135.945,103.431,135.945,92.716z"/>
		<path fill-rule="evenodd" clip-rule="evenodd" fill="#E88300" d="M152.728,101.879c-0.716,0.393-1.491,0.818-2.607,1.429
			c0-6.589,0-12.701,0-18.846c4.033-0.723,37.792-0.955,53.642-0.331c0,6.224,0,12.454,0,19.167c-1.109-0.6-1.884-1.02-2.541-1.375
			c-1.621-8.355-2.062-12.098-15.871-15.053c-0.245,0.498-0.615,1.25-1.411,2.868c0,13.205-0.051,27.686,0.048,42.167
			c0.018,2.523,0.665,5.042,1.031,7.642c0.755,0.755,1.579,1.579,2.578,2.577c1.614,0,3.403,0,5.25,0c0,0.959,0,1.742,0,2.684
			c-10.532,0-20.975,0-31.758,0c-0.05-0.736-0.111-1.64-0.186-2.734c2.034,0,3.821,0,5.292,0c1.1-1.03,1.947-1.823,2.34-2.191
			c2.05-4.728,1.365-9.171,1.385-13.542c0.06-12.976,0.021-25.952,0.021-39.324c-4.262,0.441-8.416,1-11.903,3.449
			C154.386,93.026,153.357,97.081,152.728,101.879z"/>
		<path fill-rule="evenodd" clip-rule="evenodd" fill="#E88300" d="M252.056,139.592c0-16.875,0-33.624,0-50.3
			c2.714-2.464,5.327-2.638,8.797-1.457c5.835,1.986,8.404,3.425,11.055,11.362c2.867,8.582,3.839,12.49,2.862,19.666
			c-0.68,4.999-0.495,10.38-3.809,14.84c-2.61,3.513-4.967,7.188-10.012,7.264c-2.004,1.539-4.329,0.909-6.552,0.969
			C253.576,141.111,252.753,140.288,252.056,139.592z"/>
		<path fill-rule="evenodd" clip-rule="evenodd" fill="#E88300" d="M304.338,108.573c2.401,5.871,4.648,11.368,7.04,17.217
			c-5.147,0-9.699,0-14.354,0C299.564,120.105,301.103,114.148,304.338,108.573z"/>
		<path fill-rule="evenodd" clip-rule="evenodd" fill="#E88300" d="M445,125.796c2.947-5.52,3.834-11.757,7.417-17.218
			c2.307,5.915,4.461,11.437,6.715,17.218C454.164,125.796,449.613,125.796,445,125.796z"/>
	</g>
</g>
<path fill="#E88300" d="M576.813,69.132c-13.853-13.853-30.714-19.416-49.851-20.649c-32.761-2.111-65.445-5.188-98.157-7.917
	c-32.651-2.724-65.36-4.741-98.07-6.624c-61.3-3.528-122.96-3.225-184.021-10.188c-4.914-0.561-9.915-1.058-14.963-1.442
	c-0.349-0.104-0.695-0.212-1.047-0.311c-9.643-3.906-21.067-6.055-31.342-4.679c-18.214,2.44-22.605,2.093-39.143,10.985
	c-4.472,2.405-8.062,5.007-11.205,7.831c-0.546,0.321-1.094,0.635-1.635,0.969c-10.594,6.268-19.024,14.698-25.292,25.292
	c-5.897,10.167-9.079,21.077-9.557,32.724c-7.139,11.237-11.069,24.397-11.069,37.858c0,18.623,7.487,36.689,20.649,49.851
	c4.756,3.675,9.512,7.35,14.269,11.024c10.996,6.377,22.857,9.586,35.583,9.625c23.871,2.182,47.66,5.069,71.498,7.521
	c3.461,1.606,7.056,2.942,10.76,3.961c12.053,3.315,24.825,3.285,36.811,0.128c25.114,1.767,50.264,3.029,75.414,4.139
	c61.065,2.693,122.201,4.465,183.105,9.819c8.296,3.446,17.136,5.292,25.412,4.433c9.698-1.007,19.566-1.773,28.82-4.987
	c10.238-3.555,20.367-7.894,29.918-13.059c17.882-9.671,34.813-24.155,45.137-41.871c2.823-4.846,4.972-9.92,6.511-15.107
	c7.809-11.58,12.114-25.365,12.114-39.476C597.462,100.36,589.975,82.294,576.813,69.132z"/>
</svg>
