<?xml version="1.0" encoding="utf-8"?>
<!-- Generator: Adobe Illustrator 16.0.0, SVG Export Plug-In . SVG Version: 6.00 Build 0)  -->
<!DOCTYPE svg PUBLIC "-//W3C//DTD SVG 1.1//EN" "http://www.w3.org/Graphics/SVG/1.1/DTD/svg11.dtd">
<svg version="1.1" id="Layer_1" xmlns="http://www.w3.org/2000/svg" xmlns:xlink="http://www.w3.org/1999/xlink" x="0px" y="0px"
	 width="600px" height="264px" viewBox="0 0 600 264" enable-background="new 0 0 600 264" xml:space="preserve">
<g>
	<g>
		<path fill="#FEFDFB" d="M82.086,148.661c-15.742-3.292-24.584-11.813-25.432-26.7c-10.043-5.91-17.159-14.045-25.237-21.208
			c0.249-0.407,0.497-0.813,0.744-1.221c16.829,0,33.656-0.001,51.083-0.001c0-23.795-0.001-47.146-0.001-70.758
			c14.589,0,28.575,0,42.99-0.001c0,9.713,0,19.302,0,29.003c4.2,1.693,7.949,3.764,11.985,4.719
			c9.229,2.185,17.367,8.281,27.651,6.837c3.408-0.478,7.004,0.438,10.481,0.22c3.442-0.215,6.825-1.338,10.268-1.539
			c3.38-0.199,6.915-0.197,10.18,0.537c4.566,1.026,8.947,2.813,14.011,4.471c0,7.585,0,15.828,0,23.502
			c6.515,7.87,10.478,15.759,8.069,25.481c-0.25,1.006-0.033,2.13,0.037,3.196c0.378,5.872-1.452,8.536-6.716,11.344
			c-4.406,2.351-8.555,5.166-12.704,7.935c-8.084,5.397-16.104,10.886-24.105,16.395c-1.231,0.85-2.756,1.824-3.238,3.064
			c-3.614,9.274-5.893,18.683-1.802,28.441c0.573,1.368,0.946,2.813,1.576,4.71c-11.785,1.184-21.019-5.583-31.775-7.228
			c-2.129-5.341-4.214-10.581-6.308-15.817c-0.228-0.571-0.348-1.295-0.78-1.664c-8.491-7.221-12.045-17.436-17.51-26.487
			c-0.158-0.261-0.417-0.464-0.999-1.094c-6.696-1.113-13.583-2.95-17.901-9.036c-6.503-0.088-8.856,1.699-10.653,6.992
			C85.295,144.825,83.519,146.559,82.086,148.661z M129.088,84.146c-0.151,0.312-0.302,0.625-0.452,0.937
			c0.601,0.519,1.113,1.283,1.817,1.518c6.057,2.015,6.537,2.579,6.569,8.831c0.033,6.748,0.065,13.495-0.015,20.241
			c-0.041,3.516,0.072,7.099-0.58,10.531c-1.444,7.604-7.076,11.519-15.071,10.975c-7.273-0.496-11.04-4.515-11.213-12.743
			c-0.225-10.576-0.038-21.161-0.101-31.741c-0.021-3.619,1.314-5.867,5.424-6.107c0.908-0.053,1.772-0.825,2.656-1.266
			c-0.134-0.351-0.266-0.703-0.399-1.055c-9.56,0-19.12,0-28.678,0.001c-0.167,0.361-0.336,0.723-0.502,1.084
			c2.185,1.15,4.37,2.301,6.759,3.562c0.157,2.394,0.42,4.665,0.435,6.938c0.053,9.047-0.084,18.096,0.063,27.142
			c0.165,10.161,5.994,16.615,16.475,18.208c3.434,0.521,7.016,0.785,10.462,0.475c11.628-1.051,17.808-7.234,18.299-18.522
			c0.4-9.186,0.206-18.395,0.38-27.59c0.044-2.385,0.482-4.765,0.74-7.149c1.393-2.175,6.089-0.248,5.589-4.267
			C141.425,84.146,135.257,84.146,129.088,84.146z M150.504,100.981c0.44,0.158,0.881,0.315,1.323,0.471
			c0.609-1.207,1.487-2.358,1.781-3.632c1.567-6.775,7.349-11.381,15.728-10.15c0,14.502,0.058,29.052-0.042,43.603
			c-0.022,3.394-1.565,5.855-5.629,6.189c-0.987,0.082-1.896,1.009-2.842,1.548c0.156,0.19,0.31,0.384,0.465,0.577
			c10.188,0,20.376-0.001,31.256-0.001c-0.87-1.09-1.133-1.79-1.588-1.935c-7.358-2.336-7.493-2.431-7.514-9.678
			c-0.037-12.118-0.02-24.234,0-36.353c0.002-1.446,0.16-2.892,0.244-4.318c9.455,0.316,12.995,2.929,15.47,10.808
			c0.369,1.177,1.216,2.215,1.841,3.317c0.375-0.135,0.749-0.269,1.122-0.403c-0.001-5.549-0.001-11.096-0.001-16.747
			c-17.256,0-34.388,0-51.614,0.001C150.504,90.08,150.504,95.53,150.504,100.981z"/>
		<path fill="#FEFDFB" d="M226.818,138.651c0.964-0.439,1.886-1.112,2.896-1.271c3.139-0.491,4.187-2.303,4.178-5.152
			c-0.041-13.477-0.048-26.954,0.004-40.432c0.011-2.917-1.294-4.548-4.262-5.132c-0.993-0.195-1.905-0.765-3.04-1.239
			c0.688-0.847,0.869-1.262,1.043-1.26c11.449,0.206,23.011-0.443,34.315,0.896c15.387,1.825,23.966,13.649,23.205,28.615
			c-0.657,12.924-10.484,25.018-27.303,26.205c-10.13,0.714-20.358,0.132-30.542,0.132
			C227.147,139.56,226.982,139.105,226.818,138.651z M248.613,88.576c0,15.879,0.001,31.452,0.001,47.437
			c1.696,0.437,3.162,1.134,4.634,1.141c6.818,0.037,13.239-4.408,14.97-10.766c1.076-3.958,1.721-8.118,1.834-12.206
			c0.204-7.374-0.542-14.704-4.88-21.138C261.332,87.349,254.477,85.542,248.613,88.576z"/>
		<path fill="#FEFDFB" d="M373.566,123.866c-0.928,5.198-1.855,10.394-2.815,15.793c-22.123,0.001-44.126,0.001-66.131,0.002
			c-0.061-0.254-0.121-0.51-0.181-0.763c1.898-0.729,3.798-1.457,6.368-2.44c-1.332-3.649-2.506-6.857-3.699-10.122
			c-5.8,0-11.191,0-17.2,0c-1,3.309-2.023,6.691-3.098,10.247c2.644,0.917,4.48,1.554,6.317,2.194
			c-0.041,0.272-0.083,0.544-0.124,0.816c-4.964,0-9.928,0-14.892,0c5.437-3.503,6.574-9.213,8.746-14.308
			c4.444-10.421,8.822-20.867,13.26-31.291c0.561-1.319,1.301-2.567,1.96-3.848c0.401-0.016,0.803-0.032,1.204-0.049
			c0.826,1.521,1.758,3,2.461,4.572c5.815,13.013,11.491,26.082,17.421,39.045c2.346,5.131,4.281,5.48,10.137,2.412
			c0-13.471-0.001-27.166-0.001-40.974c-2.032-0.902-3.822-1.698-5.614-2.493c0.045-0.276,0.089-0.553,0.134-0.83
			c8.574,0,17.149,0,25.723,0c0.084,0.356,0.169,0.713,0.253,1.07c-1.844,0.48-3.689,0.96-6.185,1.61
			c-0.386,0.944-1.406,2.287-1.418,3.637c-0.104,12.273-0.035,24.547,0.01,36.821c0.002,0.429,0.283,0.856,0.601,1.754
			c5.356,1.299,11.171,1.77,15.73-1.634c4.027-3.006,6.841-7.51,10.189-11.353C373.004,123.778,373.284,123.822,373.566,123.866z
			 M298.349,106.155c-2.441,5.896-4.549,10.987-6.766,16.344c4.676,0,8.882,0,13.697,0
			C302.995,117.111,300.88,112.121,298.349,106.155z"/>
		<path fill="#FEFDFB" d="M501.962,92.552c1.468-0.991,2.437-1.645,4.013-2.708c0,5.717,0,10.781,0,17.011
			c-1.21-1.439-1.927-2.175-2.502-3c-1.924-2.756-3.519-5.782-5.769-8.26c-2.812-3.098-6.959-3.319-10.631-2.155
			c-1.892,0.6-4.102,2.958-4.398,4.784c-0.327,2.015,0.762,4.969,2.338,6.372c2.492,2.222,5.889,3.52,8.935,5.157
			c2.214,1.191,4.542,2.199,6.706,3.466c6.678,3.909,9.375,10.063,7.475,16.784c-1.698,5.999-7.936,10.891-14.941,10.902
			c-5.021,0.007-10.049-0.925-15.931-1.527c-0.32,0.212-1.441,0.951-3.215,2.123c0-6.358,0-12.098,0-17.837
			c0.286-0.142,0.573-0.283,0.859-0.425c0.629,1.281,1.393,2.519,1.871,3.849c2.877,7.986,7.922,11.612,15.326,11.186
			c3.957-0.229,6.146-2.392,7.146-5.711c1.001-3.319-0.32-6.132-3.341-7.88c-4.353-2.521-8.947-4.654-13.307-7.167
			c-8.067-4.652-10.678-10.882-7.774-18.026c2.915-7.166,10.532-10.706,19.311-8.888C496.756,91.143,499.336,91.891,501.962,92.552z
			"/>
		<path fill="#FEFDFB" d="M446.316,138.786c1.701-0.571,3.406-1.141,6.089-2.04c-1.053-3.412-2.089-6.765-3.175-10.282
			c-5.931,0-11.435,0-17.498,0c-0.934,3.379-1.872,6.771-2.833,10.252c2.684,0.809,4.443,1.338,6.202,1.868
			c-0.022,0.299-0.046,0.598-0.068,0.897c-5.036,0-10.068,0-15.289,0c8.293-6.629,9.461-16.608,13.595-25.075
			c3.289-6.741,5.815-13.824,8.739-20.733c0.506-1.206,1.286-2.305,2.522-4.472c1.348,2.321,2.341,3.733,3.033,5.27
			c5.515,12.309,10.861,24.689,16.531,36.933c1.322,2.86,3.675,5.28,5.937,8.435c-7.615,0.47-15.626,0.367-23.641,0.004
			C446.414,139.49,446.365,139.137,446.316,138.786z M433.684,122.39c4.624,0,8.79,0,13.508,0
			c-2.308-5.347-4.425-10.248-6.989-16.188C437.777,112.224,435.769,117.212,433.684,122.39z"/>
		<path fill="#FEFDFB" d="M378.001,136.756c2.165-4.934,2.079-37.494,0.001-41.954c-1.723-0.741-3.441-1.481-5.163-2.222
			c0.11-0.305,0.219-0.61,0.331-0.915c8.521,0,17.044,0,25.563,0c0.1,0.366,0.197,0.732,0.296,1.098
			c-2.072,0.675-4.148,1.349-6.137,1.995c-2.377,5.617-2.256,38.289,0.231,42.354c5.27,0.561,11.018,1.267,15.372-2.316
			c3.779-3.111,6.48-7.428,10.584-11.036c-0.974,5.358-1.947,10.717-2.896,15.93c-14.623,0-28.835,0-43.049,0
			c-0.072-0.28-0.145-0.561-0.218-0.84C374.536,138.184,376.154,137.515,378.001,136.756z"/>
	</g>
</g>
</svg>
